<svg width="16" height="16" viewBox="0 0 16 16" fill="none" xmlns="http://www.w3.org/2000/svg">
<path fill-rule="evenodd" clip-rule="evenodd" d="M8 5V2H7V5H6.5H6V5.5V7.5H7V6H12V7.5C12 8.36432 11.6809 8.97582 11.2303 9.3763C10.7706 9.78495 10.1435 10 9.5 10C9.3313 10 9.16373 9.98522 9 9.95604V10.9675V11.5V14H10V10.9675C10.6882 10.8776 11.3588 10.6 11.8947 10.1237C12.5691 9.52418 13 8.63568 13 7.5V5.5V5H12.5H12V2H11V5H8Z" fill="#C5C5C5"/>
<path d="M4.5 14.9922C4.98437 14.9922 5.4375 14.901 5.85937 14.7188C6.28125 14.5365 6.65104 14.2891 6.96875 13.9766C7.28646 13.6641 7.53646 13.2943 7.71875 12.8672C7.90104 12.4401 7.99219 11.987 7.99219 11.5078C7.99219 11.0234 7.90104 10.5703 7.71875 10.1484C7.53646 9.72656 7.28906 9.35677 6.97656 9.03906C6.66406 8.72135 6.29427 8.47135 5.86719 8.28906C5.4401 8.10677 4.98698 8.01563 4.50781 8.01563C4.03385 8.01563 3.58073 8.10677 3.14844 8.28906C2.71615 8.47135 2.33333 8.73177 2 9.07031L2 8L1 8L1 11L4 11L4 10.0078L2.50781 10.0078C2.74219 9.69531 3.03646 9.45313 3.39062 9.28125C3.74479 9.10938 4.11719 9.02083 4.50781 9.01563C4.85156 9.01563 5.17448 9.08073 5.47656 9.21094C5.77865 9.34115 6.04427 9.51823 6.27344 9.74219C6.5026 9.96615 6.68229 10.2318 6.8125 10.5391C6.94271 10.8464 7.00781 11.1719 7.00781 11.5156C7.00781 11.8594 6.94271 12.1823 6.8125 12.4844C6.68229 12.7865 6.50521 13.0495 6.28125 13.2734C6.05729 13.4974 5.79167 13.6771 5.48437 13.8125C5.17708 13.9479 4.85156 14.013 4.50781 14.0078C4.24219 14.0078 3.98698 13.9688 3.74219 13.8906C3.4974 13.8125 3.27083 13.6979 3.0625 13.5469C2.85417 13.3958 2.67187 13.2214 2.51562 13.0234C2.35937 12.8255 2.23698 12.5964 2.14844 12.3359L1.21094 12.6719C1.33594 13.0208 1.50781 13.3359 1.72656 13.6172C1.94531 13.8984 2.19792 14.1432 2.48437 14.3516C2.77083 14.5599 3.08594 14.7161 3.42969 14.8203C3.77344 14.9245 4.13021 14.9818 4.5 14.9922Z" fill="#C5C5C5"/>
</svg>
