<svg width="16" height="16" viewBox="0 0 16 16" fill="none" xmlns="http://www.w3.org/2000/svg">
<path d="M10.5 5.5H11V5L10.5 5L10.5 5.5ZM4.5 5.5L4.5 5L4 5V5.5H4.5ZM4 7.5C4 8.63568 4.43085 9.52418 5.10532 10.1237C5.77058 10.7151 6.64346 11 7.5 11L7.5 10C6.85654 10 6.22942 9.78495 5.76968 9.3763C5.31915 8.97582 5 8.36432 5 7.5H4ZM7.5 11C8.35654 11 9.22942 10.7151 9.89468 10.1237C10.5691 9.52418 11 8.63568 11 7.5H10C10 8.36432 9.68085 8.97582 9.23032 9.3763C8.77058 9.78495 8.14346 10 7.5 10L7.5 11ZM11 7.5C11 7.4961 11 7.4922 11 7.48831C11 7.48442 11 7.48053 11 7.47666C11 7.47278 11 7.46891 11 7.46505C11 7.46119 11 7.45734 11 7.45349C11 7.44965 11 7.44581 11 7.44198C11 7.43815 11 7.43433 11 7.43051C11 7.4267 11 7.42289 11 7.41909C11 7.41529 11 7.4115 11 7.40771C11 7.40392 11 7.40015 11 7.39638C11 7.39261 11 7.38884 11 7.38509C11 7.38133 11 7.37759 11 7.37385C11 7.37011 11 7.36637 11 7.36265C11 7.35892 11 7.3552 11 7.35149C11 7.34778 11 7.34408 11 7.34039C11 7.33669 11 7.333 11 7.32932C11 7.32564 11 7.32197 11 7.3183C11 7.31464 11 7.31098 11 7.30733C11 7.30367 11 7.30003 11 7.29639C11 7.29276 11 7.28913 11 7.28551C11 7.28189 11 7.27827 11 7.27466C11 7.27106 11 7.26746 11 7.26386C11 7.26027 11 7.25669 11 7.25311C11 7.24953 11 7.24596 11 7.2424C11 7.23884 11 7.23528 11 7.23173C11 7.22818 11 7.22464 11 7.22111C11 7.21757 11 7.21405 11 7.21053C11 7.20701 11 7.20349 11 7.19999C11 7.19648 11 7.19299 11 7.1895C11 7.186 11 7.18252 11 7.17904C11 7.17557 11 7.1721 11 7.16864C11 7.16518 11 7.16172 11 7.15827C11 7.15483 11 7.15139 11 7.14795C11 7.14452 11 7.14109 11 7.13767C11 7.13426 11 7.13084 11 7.12744C11 7.12403 11 7.12064 11 7.11725C11 7.11386 11 7.11047 11 7.1071C11 7.10372 11 7.10035 11 7.09699C11 7.09363 11 7.09027 11 7.08692C11 7.08358 11 7.08023 11 7.0769C11 7.07357 11 7.07024 11 7.06692C11 7.0636 11 7.06029 11 7.05698C11 7.05368 11 7.05038 11 7.04709C11 7.04379 11 7.04051 11 7.03723C11 7.03395 11 7.03068 11 7.02742C11 7.02416 11 7.0209 11 7.01765C11 7.0144 11 7.01116 11 7.00792C11 7.00469 11 7.00146 11 6.99823C11 6.99501 11 6.9918 11 6.98859C11 6.98538 11 6.98218 11 6.97899C11 6.97579 11 6.9726 11 6.96942C11 6.96624 11 6.96307 11 6.9599C11 6.95674 11 6.95358 11 6.95042C11 6.94727 11 6.94412 11 6.94098C11 6.93784 11 6.93471 11 6.93159C11 6.92846 11 6.92534 11 6.92223C11 6.91912 11 6.91601 11 6.91291C11 6.90982 11 6.90672 11 6.90364C11 6.90055 11 6.89748 11 6.8944C11 6.89133 11 6.88827 11 6.88521C11 6.88215 11 6.8791 11 6.87606C11 6.87301 11 6.86998 11 6.86694C11 6.86391 11 6.86089 11 6.85787C11 6.85485 11 6.85184 11 6.84884C11 6.84584 11 6.84284 11 6.83985C11 6.83686 11 6.83387 11 6.83089C11 6.82792 11 6.82495 11 6.82198C11 6.81902 11 6.81606 11 6.81311C11 6.81016 11 6.80722 11 6.80428C11 6.80134 11 6.79841 11 6.79549C11 6.79256 11 6.78964 11 6.78673C11 6.78382 11 6.78092 11 6.77802C11 6.77512 11 6.77223 11 6.76934C11 6.76646 11 6.76358 11 6.76071C11 6.75784 11 6.75497 11 6.75211C11 6.74925 11 6.7464 11 6.74356C11 6.74071 11 6.73787 11 6.73504C11 6.73221 11 6.72938 11 6.72656C11 6.72374 11 6.72093 11 6.71812C11 6.71531 11 6.71251 11 6.70972C11 6.70693 11 6.70414 11 6.70136C11 6.69858 11 6.6958 11 6.69303C11 6.69027 11 6.68751 11 6.68475C11 6.68199 11 6.67925 11 6.6765C11 6.67376 11 6.67103 11 6.6683C11 6.66557 11 6.66284 11 6.66013C11 6.65741 11 6.6547 11 6.65199C11 6.64929 11 6.64659 11 6.6439C11 6.64121 11 6.63852 11 6.63584C11 6.63317 11 6.63049 11 6.62783C11 6.62516 11 6.6225 11 6.61985C11 6.61719 11 6.61455 11 6.61191C11 6.60926 11 6.60663 11 6.604C11 6.60137 11 6.59875 11 6.59613C11 6.59352 11 6.59091 11 6.5883C11 6.5857 11 6.5831 11 6.58051C11 6.57792 11 6.57534 11 6.57276C11 6.57018 11 6.56761 11 6.56504C11 6.56247 11 6.55991 11 6.55736C11 6.55481 11 6.55226 11 6.54972C11 6.54717 11 6.54464 11 6.54211C11 6.53958 11 6.53706 11 6.53454C11 6.53202 11 6.52951 11 6.52701C11 6.5245 11 6.522 11 6.51951C11 6.51702 11 6.51453 11 6.51205C11 6.50957 11 6.5071 11 6.50463C11 6.50216 11 6.4997 11 6.49724C11 6.49478 11 6.49233 11 6.48989C11 6.48745 11 6.48501 11 6.48258C11 6.48014 11 6.47772 11 6.4753C11 6.47288 11 6.47046 11 6.46805C11 6.46565 11 6.46324 11 6.46085C11 6.45845 11 6.45606 11 6.45368C11 6.45129 11 6.44892 11 6.44654C11 6.44417 11 6.4418 11 6.43944C11 6.43708 11 6.43473 11 6.43238C11 6.43003 11 6.42769 11 6.42535C11 6.42302 11 6.42069 11 6.41836C11 6.41604 11 6.41372 11 6.4114C11 6.40909 11 6.40678 11 6.40448C11 6.40218 11 6.39988 11 6.39759C11 6.3953 11 6.39302 11 6.39074C11 6.38846 11 6.38619 11 6.38393C11 6.38166 11 6.3794 11 6.37714C11 6.37489 11 6.37264 11 6.3704C11 6.36815 11 6.36592 11 6.36368C11 6.36145 11 6.35923 11 6.35701C11 6.35479 11 6.35257 11 6.35036C11 6.34815 11 6.34595 11 6.34375C11 6.34156 11 6.33936 11 6.33718C11 6.33499 11 6.33281 11 6.33064C11 6.32846 11 6.3263 11 6.32413C11 6.32197 11 6.31981 11 6.31766C11 6.31551 11 6.31336 11 6.31122C11 6.30908 11 6.30695 11 6.30482C11 6.30269 11 6.30056 11 6.29845C11 6.29633 11 6.29422 11 6.29211C11 6.29 11 6.2879 11 6.28581C11 6.28371 11 6.28162 11 6.27954C11 6.27745 11 6.27537 11 6.2733C11 6.27123 11 6.26916 11 6.2671C11 6.26504 11 6.26298 11 6.26093C11 6.25888 11 6.25683 11 6.25479C11 6.25275 11 6.25072 11 6.24869C11 6.24666 11 6.24464 11 6.24262C11 6.2406 11 6.23859 11 6.23658C11 6.23457 11 6.23257 11 6.23058C11 6.22858 11 6.22659 11 6.2246C11 6.22262 11 6.22064 11 6.21866C11 6.21669 11 6.21472 11 6.21276C11 6.21079 11 6.20884 11 6.20688C11 6.20493 11 6.20298 11 6.20104C11 6.1991 11 6.19716 11 6.19523C11 6.1933 11 6.19137 11 6.18945C11 6.18753 11 6.18562 11 6.18371C11 6.1818 11 6.17989 11 6.178C11 6.1761 11 6.1742 11 6.17231C11 6.17043 11 6.16854 11 6.16666C11 6.16479 11 6.16291 11 6.16105C11 6.15918 11 6.15732 11 6.15546C11 6.1536 11 6.15175 11 6.14991C11 6.14806 11 6.14622 11 6.14438C11 6.14255 11 6.14072 11 6.13889C11 6.13707 11 6.13525 11 6.13343C11 6.13162 11 6.12981 11 6.128C11 6.1262 11 6.1244 11 6.1226C11 6.12081 11 6.11902 11 6.11724C11 6.11545 11 6.11367 11 6.1119C11 6.11013 11 6.10836 11 6.10659C11 6.10483 11 6.10307 11 6.10132C11 6.09957 11 6.09782 11 6.09607C11 6.09433 11 6.09259 11 6.09086C11 6.08913 11 6.0874 11 6.08568C11 6.08396 11 6.08224 11 6.08053C11 6.07881 11 6.07711 11 6.0754C11 6.0737 11 6.072 11 6.07031C11 6.06862 11 6.06693 11 6.06525C11 6.06357 11 6.06189 11 6.06022C11 6.05855 11 6.05688 11 6.05522C11 6.05355 11 6.0519 11 6.05024C11 6.04859 11 6.04694 11 6.0453C11 6.04366 11 6.04202 11 6.04039C11 6.03876 11 6.03713 11 6.03551C11 6.03388 11 6.03227 11 6.03065C11 6.02904 11 6.02743 11 6.02583C11 6.02423 11 6.02263 11 6.02103C11 6.01944 11 6.01785 11 6.01627C11 6.01468 11 6.01311 11 6.01153C11 6.00996 11 6.00839 11 6.00682C11 6.00526 11 6.0037 11 6.00215C11 6.00059 11 5.99904 11 5.9975C11 5.99595 11 5.99441 11 5.99288C11 5.99134 11 5.98981 11 5.98828C11 5.98676 11 5.98524 11 5.98372C11 5.9822 11 5.98069 11 5.97919C11 5.97768 11 5.97618 11 5.97468C11 5.97318 11 5.97169 11 5.9702C11 5.96871 11 5.96723 11 5.96575C11 5.96427 11 5.9628 11 5.96133C11 5.95986 11 5.9584 11 5.95694C11 5.95548 11 5.95402 11 5.95257C11 5.95112 11 5.94967 11 5.94823C11 5.94679 11 5.94536 11 5.94392C11 5.94249 11 5.94106 11 5.93964C11 5.93822 11 5.9368 11 5.93539C11 5.93397 11 5.93256 11 5.93116C11 5.92976 11 5.92836 11 5.92696C11 5.92556 11 5.92417 11 5.92279C11 5.9214 11 5.92002 11 5.91864C11 5.91727 11 5.91589 11 5.91453C11 5.91316 11 5.91179 11 5.91043C11 5.90908 11 5.90772 11 5.90637C11 5.90502 11 5.90368 11 5.90233C11 5.90099 11 5.89966 11 5.89832C11 5.89699 11 5.89566 11 5.89434C11 5.89302 11 5.8917 11 5.89038C11 5.88907 11 5.88776 11 5.88645C11 5.88515 11 5.88385 11 5.88255C11 5.88125 11 5.87996 11 5.87867C11 5.87739 11 5.8761 11 5.87482C11 5.87354 11 5.87227 11 5.871C11 5.86973 11 5.86846 11 5.8672C11 5.86594 11 5.86468 11 5.86343C11 5.86217 11 5.86093 11 5.85968C11 5.85844 11 5.8572 11 5.85596C11 5.85472 11 5.85349 11 5.85226C11 5.85104 11 5.84981 11 5.8486C11 5.84738 11 5.84616 11 5.84495C11 5.84374 11 5.84254 11 5.84133C11 5.84013 11 5.83893 11 5.83774C11 5.83655 11 5.83536 11 5.83417C11 5.83299 11 5.83181 11 5.83063C11 5.82945 11 5.82828 11 5.82711C11 5.82594 11 5.82478 11 5.82362C11 5.82246 11 5.82131 11 5.82015C11 5.819 11 5.81785 11 5.81671C11 5.81557 11 5.81443 11 5.81329C11 5.81216 11 5.81103 11 5.8099C11 5.80877 11 5.80765 11 5.80653C11 5.80541 11 5.8043 11 5.80319C11 5.80208 11 5.80097 11 5.79987C11 5.79877 11 5.79767 11 5.79657C11 5.79548 11 5.79439 11 5.7933C11 5.79222 11 5.79113 11 5.79006C11 5.78898 11 5.7879 11 5.78683C11 5.78576 11 5.7847 11 5.78363C11 5.78257 11 5.78151 11 5.78046C11 5.7794 11 5.77835 11 5.77731C11 5.77626 11 5.77522 11 5.77418C11 5.77314 11 5.77211 11 5.77108C11 5.77005 11 5.76902 11 5.768C11 5.76697 11 5.76595 11 5.76494C11 5.76392 11 5.76291 11 5.76191C11 5.7609 11 5.75989 11 5.7589C11 5.7579 11 5.7569 11 5.75591C11 5.75492 11 5.75393 11 5.75294C11 5.75196 11 5.75098 11 5.75C11 5.74903 11 5.74805 11 5.74708C11 5.74612 11 5.74515 11 5.74419C11 5.74323 11 5.74227 11 5.74132C11 5.74036 11 5.73941 11 5.73847C11 5.73752 11 5.73658 11 5.73564C11 5.7347 11 5.73376 11 5.73283C11 5.7319 11 5.73097 11 5.73005C11 5.72913 11 5.72821 11 5.72729C11 5.72637 11 5.72546 11 5.72455C11 5.72364 11 5.72274 11 5.72184C11 5.72093 11 5.72004 11 5.71914C11 5.71825 11 5.71736 11 5.71647C11 5.71558 11 5.7147 11 5.71382C11 5.71294 11 5.71206 11 5.71119C11 5.71032 11 5.70945 11 5.70858C11 5.70772 11 5.70685 11 5.706C11 5.70514 11 5.70428 11 5.70343C11 5.70258 11 5.70173 11 5.70089C11 5.70004 11 5.6992 11 5.69837C11 5.69753 11 5.6967 11 5.69587C11 5.69504 11 5.69421 11 5.69339C11 5.69256 11 5.69175 11 5.69093C11 5.69011 11 5.6893 11 5.68849C11 5.68768 11 5.68688 11 5.68608C11 5.68527 11 5.68448 11 5.68368C11 5.68288 11 5.68209 11 5.6813C11 5.68052 11 5.67973 11 5.67895C11 5.67817 11 5.67739 11 5.67662C11 5.67584 11 5.67507 11 5.6743C11 5.67353 11 5.67277 11 5.67201C11 5.67125 11 5.67049 11 5.66974C11 5.66898 11 5.66823 11 5.66748C11 5.66674 11 5.66599 11 5.66525C11 5.66451 11 5.66377 11 5.66304C11 5.6623 11 5.66157 11 5.66084C11 5.66012 11 5.65939 11 5.65867C11 5.65795 11 5.65723 11 5.65652C11 5.6558 11 5.65509 11 5.65438C11 5.65367 11 5.65297 11 5.65227C11 5.65157 11 5.65087 11 5.65017C11 5.64948 11 5.64878 11 5.6481C11 5.64741 11 5.64672 11 5.64604C11 5.64536 11 5.64468 11 5.644C11 5.64332 11 5.64265 11 5.64198C11 5.64131 11 5.64065 11 5.63998C11 5.63932 11 5.63866 11 5.638C11 5.63734 11 5.63669 11 5.63604C11 5.63539 11 5.63474 11 5.6341C11 5.63345 11 5.63281 11 5.63217C11 5.63153 11 5.6309 11 5.63027C11 5.62963 11 5.629 11 5.62838C11 5.62775 11 5.62713 11 5.62651C11 5.62589 11 5.62527 11 5.62466C11 5.62404 11 5.62343 11 5.62282C11 5.62222 11 5.62161 11 5.62101C11 5.62041 11 5.61981 11 5.61921C11 5.61862 11 5.61802 11 5.61743C11 5.61684 11 5.61625 11 5.61567C11 5.61509 11 5.61451 11 5.61393C11 5.61335 11 5.61277 11 5.6122C11 5.61163 11 5.61106 11 5.61049C11 5.60993 11 5.60936 11 5.6088C11 5.60824 11 5.60768 11 5.60713C11 5.60657 11 5.60602 11 5.60547C11 5.60492 11 5.60437 11 5.60383C11 5.60329 11 5.60275 11 5.60221C11 5.60167 11 5.60114 11 5.6006C11 5.60007 11 5.59954 11 5.59902C11 5.59849 11 5.59796 11 5.59744C11 5.59692 11 5.5964 11 5.59589C11 5.59537 11 5.59486 11 5.59435C11 5.59384 11 5.59333 11 5.59283C11 5.59232 11 5.59182 11 5.59132C11 5.59082 11 5.59033 11 5.58983C11 5.58934 11 5.58885 11 5.58836C11 5.58787 11 5.58739 11 5.58691C11 5.58642 11 5.58594 11 5.58546C11 5.58499 11 5.58451 11 5.58404C11 5.58357 11 5.5831 11 5.58263C11 5.58217 11 5.5817 11 5.58124C11 5.58078 11 5.58032 11 5.57986C11 5.57941 11 5.57895 11 5.5785C11 5.57805 11 5.5776 11 5.57716C11 5.57671 11 5.57627 11 5.57583C11 5.57538 11 5.57495 11 5.57451C11 5.57407 11 5.57364 11 5.57321C11 5.57278 11 5.57235 11 5.57193C11 5.5715 11 5.57108 11 5.57066C11 5.57024 11 5.56982 11 5.5694C11 5.56899 11 5.56857 11 5.56816C11 5.56775 11 5.56735 11 5.56694C11 5.56653 11 5.56613 11 5.56573C11 5.56533 11 5.56493 11 5.56453C11 5.56414 11 5.56375 11 5.56335C11 5.56296 11 5.56257 11 5.56219C11 5.5618 11 5.56142 11 5.56104C11 5.56066 11 5.56028 11 5.5599C11 5.55952 11 5.55915 11 5.55878C11 5.5584 11 5.55803 11 5.55767C11 5.5573 11 5.55694 11 5.55657C11 5.55621 11 5.55585 11 5.55549C11 5.55513 11 5.55478 11 5.55442C11 5.55407 11 5.55372 11 5.55337C11 5.55302 11 5.55268 11 5.55233C11 5.55199 11 5.55165 11 5.55131C11 5.55097 11 5.55063 11 5.55029C11 5.54996 11 5.54962 11 5.54929C11 5.54896 11 5.54863 11 5.54831C11 5.54798 11 5.54766 11 5.54734C11 5.54701 11 5.54669 11 5.54638C11 5.54606 11 5.54574 11 5.54543C11 5.54512 11 5.54481 11 5.5445C11 5.54419 11 5.54388 11 5.54358C11 5.54327 11 5.54297 11 5.54267C11 5.54237 11 5.54207 11 5.54177C11 5.54148 11 5.54118 11 5.54089C11 5.5406 11 5.54031 11 5.54002C11 5.53973 11 5.53945 11 5.53916C11 5.53888 11 5.5386 11 5.53832C11 5.53804 11 5.53776 11 5.53748C11 5.53721 11 5.53694 11 5.53666C11 5.53639 11 5.53612 11 5.53586C11 5.53559 11 5.53532 11 5.53506C11 5.53479 11 5.53453 11 5.53427C11 5.53401 11 5.53376 11 5.5335C11 5.53324 11 5.53299 11 5.53274C11 5.53249 11 5.53224 11 5.53199C11 5.53174 11 5.5315 11 5.53125C11 5.53101 11 5.53076 11 5.53052C11 5.53028 11 5.53005 11 5.52981C11 5.52957 11 5.52934 11 5.52911C11 5.52887 11 5.52864 11 5.52841C11 5.52818 11 5.52796 11 5.52773C11 5.5275 11 5.52728 11 5.52706C11 5.52684 11 5.52662 11 5.5264C11 5.52618 11 5.52596 11 5.52575C11 5.52554 11 5.52532 11 5.52511C11 5.5249 11 5.52469 11 5.52448C11 5.52428 11 5.52407 11 5.52387C11 5.52366 11 5.52346 11 5.52326C11 5.52306 11 5.52286 11 5.52266C11 5.52247 11 5.52227 11 5.52208C11 5.52188 11 5.52169 11 5.5215C11 5.52131 11 5.52112 11 5.52094C11 5.52075 11 5.52056 11 5.52038C11 5.5202 11 5.52001 11 5.51983C11 5.51965 11 5.51948 11 5.5193C11 5.51912 11 5.51895 11 5.51877C11 5.5186 11 5.51843 11 5.51826C11 5.51809 11 5.51792 11 5.51775C11 5.51758 11 5.51742 11 5.51725C11 5.51709 11 5.51692 11 5.51676C11 5.5166 11 5.51644 11 5.51628C11 5.51613 11 5.51597 11 5.51581C11 5.51566 11 5.51551 11 5.51535C11 5.5152 11 5.51505 11 5.5149C11 5.51475 11 5.51461 11 5.51446C11 5.51431 11 5.51417 11 5.51403C11 5.51388 11 5.51374 11 5.5136C11 5.51346 11 5.51332 11 5.51318C11 5.51305 11 5.51291 11 5.51278C11 5.51264 11 5.51251 11 5.51238C11 5.51225 11 5.51212 11 5.51199C11 5.51186 11 5.51173 11 5.5116C11 5.51148 11 5.51135 11 5.51123C11 5.51111 11 5.51098 11 5.51086C11 5.51074 11 5.51062 11 5.51051C11 5.51039 11 5.51027 11 5.51016C11 5.51004 11 5.50993 11 5.50981C11 5.5097 11 5.50959 11 5.50948C11 5.50937 11 5.50926 11 5.50915C11 5.50904 11 5.50894 11 5.50883C11 5.50873 11 5.50862 11 5.50852C11 5.50842 11 5.50832 11 5.50822C11 5.50812 11 5.50802 11 5.50792C11 5.50782 11 5.50773 11 5.50763C11 5.50753 11 5.50744 11 5.50735C11 5.50725 11 5.50716 11 5.50707C11 5.50698 11 5.50689 11 5.5068C11 5.50672 11 5.50663 11 5.50654C11 5.50646 11 5.50637 11 5.50629C11 5.5062 11 5.50612 11 5.50604C11 5.50596 11 5.50588 11 5.5058C11 5.50572 11 5.50564 11 5.50556C11 5.50549 11 5.50541 11 5.50533C11 5.50526 11 5.50518 11 5.50511C11 5.50504 11 5.50497 11 5.5049C11 5.50483 11 5.50476 11 5.50469C11 5.50462 11 5.50455 11 5.50448C11 5.50442 11 5.50435 11 5.50428C11 5.50422 11 5.50416 11 5.50409C11 5.50403 11 5.50397 11 5.50391C11 5.50385 11 5.50379 11 5.50373C11 5.50367 11 5.50361 11 5.50355C11 5.50349 11 5.50344 11 5.50338C11 5.50333 11 5.50327 11 5.50322C11 5.50317 11 5.50311 11 5.50306C11 5.50301 11 5.50296 11 5.50291C11 5.50286 11 5.50281 11 5.50276C11 5.50271 11 5.50266 11 5.50262C11 5.50257 11 5.50252 11 5.50248C11 5.50243 11 5.50239 11 5.50235C11 5.5023 11 5.50226 11 5.50222C11 5.50218 11 5.50214 11 5.5021C11 5.50206 11 5.50202 11 5.50198C11 5.50194 11 5.5019 11 5.50186C11 5.50183 11 5.50179 11 5.50175C11 5.50172 11 5.50168 11 5.50165C11 5.50161 11 5.50158 11 5.50155C11 5.50151 11 5.50148 11 5.50145C11 5.50142 11 5.50139 11 5.50136C11 5.50133 11 5.5013 11 5.50127C11 5.50124 11 5.50121 11 5.50119C11 5.50116 11 5.50113 11 5.5011C11 5.50108 11 5.50105 11 5.50103C11 5.501 11 5.50098 11 5.50095C11 5.50093 11 5.50091 11 5.50088C11 5.50086 11 5.50084 11 5.50082C11 5.5008 11 5.50078 11 5.50076C11 5.50074 11 5.50072 11 5.5007C11 5.50068 11 5.50066 11 5.50064C11 5.50062 11 5.5006 11 5.50059C11 5.50057 11 5.50055 11 5.50054C11 5.50052 11 5.5005 11 5.50049C11 5.50047 11 5.50046 11 5.50044C11 5.50043 11 5.50042 11 5.5004C11 5.50039 11 5.50038 11 5.50036C11 5.50035 11 5.50034 11 5.50033C11 5.50032 11 5.5003 11 5.50029C11 5.50028 11 5.50027 11 5.50026C11 5.50025 11 5.50024 11 5.50023C11 5.50022 11 5.50022 11 5.50021C11 5.5002 11 5.50019 11 5.50018C11 5.50017 11 5.50017 11 5.50016C11 5.50015 11 5.50015 11 5.50014C11 5.50013 11 5.50013 11 5.50012C11 5.50011 11 5.50011 11 5.5001C11 5.5001 11 5.50009 11 5.50009C11 5.50008 11 5.50008 11 5.50007C11 5.50007 11 5.50007 11 5.50006C11 5.50006 11 5.50005 11 5.50005C11 5.50005 11 5.50004 11 5.50004C11 5.50004 11 5.50004 11 5.50003C11 5.50003 11 5.50003 11 5.50003C11 5.50002 11 5.50002 11 5.50002C11 5.50002 11 5.50002 11 5.50002C11 5.50001 11 5.50001 11 5.50001C11 5.50001 11 5.50001 11 5.50001C11 5.50001 11 5.50001 11 5.50001C11 5.5 11 5.5 11 5.5C11 5.5 11 5.5 11 5.5C11 5.5 11 5.5 11 5.5C11 5.5 11 5.5 11 5.5C11 5.5 11 5.5 11 5.5C11 5.5 11 5.5 11 5.5C11 5.5 11 5.5 10.5 5.5C10 5.5 10 5.5 10 5.5C10 5.5 10 5.5 10 5.5C10 5.5 10 5.5 10 5.5C10 5.5 10 5.5 10 5.5C10 5.5 10 5.5 10 5.5C10 5.5 10 5.5 10 5.5C10 5.5 10 5.5 10 5.50001C10 5.50001 10 5.50001 10 5.50001C10 5.50001 10 5.50001 10 5.50001C10 5.50001 10 5.50001 10 5.50002C10 5.50002 10 5.50002 10 5.50002C10 5.50002 10 5.50002 10 5.50003C10 5.50003 10 5.50003 10 5.50003C10 5.50004 10 5.50004 10 5.50004C10 5.50004 10 5.50005 10 5.50005C10 5.50005 10 5.50006 10 5.50006C10 5.50007 10 5.50007 10 5.50007C10 5.50008 10 5.50008 10 5.50009C10 5.50009 10 5.5001 10 5.5001C10 5.50011 10 5.50011 10 5.50012C10 5.50013 10 5.50013 10 5.50014C10 5.50015 10 5.50015 10 5.50016C10 5.50017 10 5.50017 10 5.50018C10 5.50019 10 5.5002 10 5.50021C10 5.50022 10 5.50022 10 5.50023C10 5.50024 10 5.50025 10 5.50026C10 5.50027 10 5.50028 10 5.50029C10 5.5003 10 5.50032 10 5.50033C10 5.50034 10 5.50035 10 5.50036C10 5.50038 10 5.50039 10 5.5004C10 5.50042 10 5.50043 10 5.50044C10 5.50046 10 5.50047 10 5.50049C10 5.5005 10 5.50052 10 5.50054C10 5.50055 10 5.50057 10 5.50059C10 5.5006 10 5.50062 10 5.50064C10 5.50066 10 5.50068 10 5.5007C10 5.50072 10 5.50074 10 5.50076C10 5.50078 10 5.5008 10 5.50082C10 5.50084 10 5.50086 10 5.50088C10 5.50091 10 5.50093 10 5.50095C10 5.50098 10 5.501 10 5.50103C10 5.50105 10 5.50108 10 5.5011C10 5.50113 10 5.50116 10 5.50119C10 5.50121 10 5.50124 10 5.50127C10 5.5013 10 5.50133 10 5.50136C10 5.50139 10 5.50142 10 5.50145C10 5.50148 10 5.50151 10 5.50155C10 5.50158 10 5.50161 10 5.50165C10 5.50168 10 5.50172 10 5.50175C10 5.50179 10 5.50183 10 5.50186C10 5.5019 10 5.50194 10 5.50198C10 5.50202 10 5.50206 10 5.5021C10 5.50214 10 5.50218 10 5.50222C10 5.50226 10 5.5023 10 5.50235C10 5.50239 10 5.50243 10 5.50248C10 5.50252 10 5.50257 10 5.50262C10 5.50266 10 5.50271 10 5.50276C10 5.50281 10 5.50286 10 5.50291C10 5.50296 10 5.50301 10 5.50306C10 5.50311 10 5.50317 10 5.50322C10 5.50327 10 5.50333 10 5.50338C10 5.50344 10 5.50349 10 5.50355C10 5.50361 10 5.50367 10 5.50373C10 5.50379 10 5.50385 10 5.50391C10 5.50397 10 5.50403 10 5.50409C10 5.50416 10 5.50422 10 5.50428C10 5.50435 10 5.50442 10 5.50448C10 5.50455 10 5.50462 10 5.50469C10 5.50476 10 5.50483 10 5.5049C10 5.50497 10 5.50504 10 5.50511C10 5.50518 10 5.50526 10 5.50533C10 5.50541 10 5.50549 10 5.50556C10 5.50564 10 5.50572 10 5.5058C10 5.50588 10 5.50596 10 5.50604C10 5.50612 10 5.5062 10 5.50629C10 5.50637 10 5.50646 10 5.50654C10 5.50663 10 5.50672 10 5.5068C10 5.50689 10 5.50698 10 5.50707C10 5.50716 10 5.50725 10 5.50735C10 5.50744 10 5.50753 10 5.50763C10 5.50773 10 5.50782 10 5.50792C10 5.50802 10 5.50812 10 5.50822C10 5.50832 10 5.50842 10 5.50852C10 5.50862 10 5.50873 10 5.50883C10 5.50894 10 5.50904 10 5.50915C10 5.50926 10 5.50937 10 5.50948C10 5.50959 10 5.5097 10 5.50981C10 5.50993 10 5.51004 10 5.51016C10 5.51027 10 5.51039 10 5.51051C10 5.51062 10 5.51074 10 5.51086C10 5.51098 10 5.51111 10 5.51123C10 5.51135 10 5.51148 10 5.5116C10 5.51173 10 5.51186 10 5.51199C10 5.51212 10 5.51225 10 5.51238C10 5.51251 10 5.51264 10 5.51278C10 5.51291 10 5.51305 10 5.51318C10 5.51332 10 5.51346 10 5.5136C10 5.51374 10 5.51388 10 5.51403C10 5.51417 10 5.51431 10 5.51446C10 5.51461 10 5.51475 10 5.5149C10 5.51505 10 5.5152 10 5.51535C10 5.51551 10 5.51566 10 5.51581C10 5.51597 10 5.51613 10 5.51628C10 5.51644 10 5.5166 10 5.51676C10 5.51692 10 5.51709 10 5.51725C10 5.51742 10 5.51758 10 5.51775C10 5.51792 10 5.51809 10 5.51826C10 5.51843 10 5.5186 10 5.51877C10 5.51895 10 5.51912 10 5.5193C10 5.51948 10 5.51965 10 5.51983C10 5.52001 10 5.5202 10 5.52038C10 5.52056 10 5.52075 10 5.52094C10 5.52112 10 5.52131 10 5.5215C10 5.52169 10 5.52188 10 5.52208C10 5.52227 10 5.52247 10 5.52266C10 5.52286 10 5.52306 10 5.52326C10 5.52346 10 5.52366 10 5.52387C10 5.52407 10 5.52428 10 5.52448C10 5.52469 10 5.5249 10 5.52511C10 5.52532 10 5.52554 10 5.52575C10 5.52596 10 5.52618 10 5.5264C10 5.52662 10 5.52684 10 5.52706C10 5.52728 10 5.5275 10 5.52773C10 5.52796 10 5.52818 10 5.52841C10 5.52864 10 5.52887 10 5.52911C10 5.52934 10 5.52957 10 5.52981C10 5.53005 10 5.53028 10 5.53052C10 5.53076 10 5.53101 10 5.53125C10 5.5315 10 5.53174 10 5.53199C10 5.53224 10 5.53249 10 5.53274C10 5.53299 10 5.53324 10 5.5335C10 5.53376 10 5.53401 10 5.53427C10 5.53453 10 5.53479 10 5.53506C10 5.53532 10 5.53559 10 5.53586C10 5.53612 10 5.53639 10 5.53666C10 5.53694 10 5.53721 10 5.53748C10 5.53776 10 5.53804 10 5.53832C10 5.5386 10 5.53888 10 5.53916C10 5.53945 10 5.53973 10 5.54002C10 5.54031 10 5.5406 10 5.54089C10 5.54118 10 5.54148 10 5.54177C10 5.54207 10 5.54237 10 5.54267C10 5.54297 10 5.54327 10 5.54358C10 5.54388 10 5.54419 10 5.5445C10 5.54481 10 5.54512 10 5.54543C10 5.54574 10 5.54606 10 5.54638C10 5.54669 10 5.54701 10 5.54734C10 5.54766 10 5.54798 10 5.54831C10 5.54863 10 5.54896 10 5.54929C10 5.54962 10 5.54996 10 5.55029C10 5.55063 10 5.55097 10 5.55131C10 5.55165 10 5.55199 10 5.55233C10 5.55268 10 5.55302 10 5.55337C10 5.55372 10 5.55407 10 5.55442C10 5.55478 10 5.55513 10 5.55549C10 5.55585 10 5.55621 10 5.55657C10 5.55694 10 5.5573 10 5.55767C10 5.55803 10 5.5584 10 5.55878C10 5.55915 10 5.55952 10 5.5599C10 5.56028 10 5.56066 10 5.56104C10 5.56142 10 5.5618 10 5.56219C10 5.56257 10 5.56296 10 5.56335C10 5.56375 10 5.56414 10 5.56453C10 5.56493 10 5.56533 10 5.56573C10 5.56613 10 5.56653 10 5.56694C10 5.56735 10 5.56775 10 5.56816C10 5.56857 10 5.56899 10 5.5694C10 5.56982 10 5.57024 10 5.57066C10 5.57108 10 5.5715 10 5.57193C10 5.57235 10 5.57278 10 5.57321C10 5.57364 10 5.57407 10 5.57451C10 5.57495 10 5.57538 10 5.57583C10 5.57627 10 5.57671 10 5.57716C10 5.5776 10 5.57805 10 5.5785C10 5.57895 10 5.57941 10 5.57986C10 5.58032 10 5.58078 10 5.58124C10 5.5817 10 5.58217 10 5.58263C10 5.5831 10 5.58357 10 5.58404C10 5.58451 10 5.58499 10 5.58546C10 5.58594 10 5.58642 10 5.58691C10 5.58739 10 5.58787 10 5.58836C10 5.58885 10 5.58934 10 5.58983C10 5.59033 10 5.59082 10 5.59132C10 5.59182 10 5.59232 10 5.59283C10 5.59333 10 5.59384 10 5.59435C10 5.59486 10 5.59537 10 5.59589C10 5.5964 10 5.59692 10 5.59744C10 5.59796 10 5.59849 10 5.59902C10 5.59954 10 5.60007 10 5.6006C10 5.60114 10 5.60167 10 5.60221C10 5.60275 10 5.60329 10 5.60383C10 5.60437 10 5.60492 10 5.60547C10 5.60602 10 5.60657 10 5.60713C10 5.60768 10 5.60824 10 5.6088C10 5.60936 10 5.60993 10 5.61049C10 5.61106 10 5.61163 10 5.6122C10 5.61277 10 5.61335 10 5.61393C10 5.61451 10 5.61509 10 5.61567C10 5.61625 10 5.61684 10 5.61743C10 5.61802 10 5.61862 10 5.61921C10 5.61981 10 5.62041 10 5.62101C10 5.62161 10 5.62222 10 5.62282C10 5.62343 10 5.62404 10 5.62466C10 5.62527 10 5.62589 10 5.62651C10 5.62713 10 5.62775 10 5.62838C10 5.629 10 5.62963 10 5.63027C10 5.6309 10 5.63153 10 5.63217C10 5.63281 10 5.63345 10 5.6341C10 5.63474 10 5.63539 10 5.63604C10 5.63669 10 5.63734 10 5.638C10 5.63866 10 5.63932 10 5.63998C10 5.64065 10 5.64131 10 5.64198C10 5.64265 10 5.64332 10 5.644C10 5.64468 10 5.64536 10 5.64604C10 5.64672 10 5.64741 10 5.6481C10 5.64878 10 5.64948 10 5.65017C10 5.65087 10 5.65157 10 5.65227C10 5.65297 10 5.65367 10 5.65438C10 5.65509 10 5.6558 10 5.65652C10 5.65723 10 5.65795 10 5.65867C10 5.65939 10 5.66012 10 5.66084C10 5.66157 10 5.6623 10 5.66304C10 5.66377 10 5.66451 10 5.66525C10 5.66599 10 5.66674 10 5.66748C10 5.66823 10 5.66898 10 5.66974C10 5.67049 10 5.67125 10 5.67201C10 5.67277 10 5.67353 10 5.6743C10 5.67507 10 5.67584 10 5.67662C10 5.67739 10 5.67817 10 5.67895C10 5.67973 10 5.68052 10 5.6813C10 5.68209 10 5.68288 10 5.68368C10 5.68448 10 5.68527 10 5.68608C10 5.68688 10 5.68768 10 5.68849C10 5.6893 10 5.69011 10 5.69093C10 5.69175 10 5.69256 10 5.69339C10 5.69421 10 5.69504 10 5.69587C10 5.6967 10 5.69753 10 5.69837C10 5.6992 10 5.70004 10 5.70089C10 5.70173 10 5.70258 10 5.70343C10 5.70428 10 5.70514 10 5.706C10 5.70685 10 5.70772 10 5.70858C10 5.70945 10 5.71032 10 5.71119C10 5.71206 10 5.71294 10 5.71382C10 5.7147 10 5.71558 10 5.71647C10 5.71736 10 5.71825 10 5.71914C10 5.72004 10 5.72093 10 5.72184C10 5.72274 10 5.72364 10 5.72455C10 5.72546 10 5.72637 10 5.72729C10 5.72821 10 5.72913 10 5.73005C10 5.73097 10 5.7319 10 5.73283C10 5.73376 10 5.7347 10 5.73564C10 5.73658 10 5.73752 10 5.73847C10 5.73941 10 5.74036 10 5.74132C10 5.74227 10 5.74323 10 5.74419C10 5.74515 10 5.74612 10 5.74708C10 5.74805 10 5.74903 10 5.75C10 5.75098 10 5.75196 10 5.75294C10 5.75393 10 5.75492 10 5.75591C10 5.7569 10 5.7579 10 5.7589C10 5.75989 10 5.7609 10 5.76191C10 5.76291 10 5.76392 10 5.76494C10 5.76595 10 5.76697 10 5.768C10 5.76902 10 5.77005 10 5.77108C10 5.77211 10 5.77314 10 5.77418C10 5.77522 10 5.77626 10 5.77731C10 5.77835 10 5.7794 10 5.78046C10 5.78151 10 5.78257 10 5.78363C10 5.7847 10 5.78576 10 5.78683C10 5.7879 10 5.78898 10 5.79006C10 5.79113 10 5.79222 10 5.7933C10 5.79439 10 5.79548 10 5.79657C10 5.79767 10 5.79877 10 5.79987C10 5.80097 10 5.80208 10 5.80319C10 5.8043 10 5.80541 10 5.80653C10 5.80765 10 5.80877 10 5.8099C10 5.81103 10 5.81216 10 5.81329C10 5.81443 10 5.81557 10 5.81671C10 5.81785 10 5.819 10 5.82015C10 5.82131 10 5.82246 10 5.82362C10 5.82478 10 5.82594 10 5.82711C10 5.82828 10 5.82945 10 5.83063C10 5.83181 10 5.83299 10 5.83417C10 5.83536 10 5.83655 10 5.83774C10 5.83893 10 5.84013 10 5.84133C10 5.84254 10 5.84374 10 5.84495C10 5.84616 10 5.84738 10 5.8486C10 5.84981 10 5.85104 10 5.85226C10 5.85349 10 5.85472 10 5.85596C10 5.8572 10 5.85844 10 5.85968C10 5.86093 10 5.86217 10 5.86343C10 5.86468 10 5.86594 10 5.8672C10 5.86846 10 5.86973 10 5.871C10 5.87227 10 5.87354 10 5.87482C10 5.8761 10 5.87739 10 5.87867C10 5.87996 10 5.88125 10 5.88255C10 5.88385 10 5.88515 10 5.88645C10 5.88776 10 5.88907 10 5.89038C10 5.8917 10 5.89302 10 5.89434C10 5.89566 10 5.89699 10 5.89832C10 5.89966 10 5.90099 10 5.90233C10 5.90368 10 5.90502 10 5.90637C10 5.90772 10 5.90908 10 5.91043C10 5.91179 10 5.91316 10 5.91453C10 5.91589 10 5.91727 10 5.91864C10 5.92002 10 5.9214 10 5.92279C10 5.92417 10 5.92556 10 5.92696C10 5.92836 10 5.92976 10 5.93116C10 5.93256 10 5.93397 10 5.93539C10 5.9368 10 5.93822 10 5.93964C10 5.94106 10 5.94249 10 5.94392C10 5.94536 10 5.94679 10 5.94823C10 5.94967 10 5.95112 10 5.95257C10 5.95402 10 5.95548 10 5.95694C10 5.9584 10 5.95986 10 5.96133C10 5.9628 10 5.96427 10 5.96575C10 5.96723 10 5.96871 10 5.9702C10 5.97169 10 5.97318 10 5.97468C10 5.97618 10 5.97768 10 5.97919C10 5.98069 10 5.9822 10 5.98372C10 5.98524 10 5.98676 10 5.98828C10 5.98981 10 5.99134 10 5.99288C10 5.99441 10 5.99595 10 5.9975C10 5.99904 10 6.00059 10 6.00215C10 6.0037 10 6.00526 10 6.00682C10 6.00839 10 6.00996 10 6.01153C10 6.01311 10 6.01468 10 6.01627C10 6.01785 10 6.01944 10 6.02103C10 6.02263 10 6.02423 10 6.02583C10 6.02743 10 6.02904 10 6.03065C10 6.03227 10 6.03388 10 6.03551C10 6.03713 10 6.03876 10 6.04039C10 6.04202 10 6.04366 10 6.0453C10 6.04694 10 6.04859 10 6.05024C10 6.0519 10 6.05355 10 6.05522C10 6.05688 10 6.05855 10 6.06022C10 6.06189 10 6.06357 10 6.06525C10 6.06693 10 6.06862 10 6.07031C10 6.072 10 6.0737 10 6.0754C10 6.07711 10 6.07881 10 6.08053C10 6.08224 10 6.08396 10 6.08568C10 6.0874 10 6.08913 10 6.09086C10 6.09259 10 6.09433 10 6.09607C10 6.09782 10 6.09957 10 6.10132C10 6.10307 10 6.10483 10 6.10659C10 6.10836 10 6.11013 10 6.1119C10 6.11367 10 6.11545 10 6.11724C10 6.11902 10 6.12081 10 6.1226C10 6.1244 10 6.1262 10 6.128C10 6.12981 10 6.13162 10 6.13343C10 6.13525 10 6.13707 10 6.13889C10 6.14072 10 6.14255 10 6.14438C10 6.14622 10 6.14806 10 6.14991C10 6.15175 10 6.1536 10 6.15546C10 6.15732 10 6.15918 10 6.16105C10 6.16291 10 6.16479 10 6.16666C10 6.16854 10 6.17043 10 6.17231C10 6.1742 10 6.1761 10 6.178C10 6.17989 10 6.1818 10 6.18371C10 6.18562 10 6.18753 10 6.18945C10 6.19137 10 6.1933 10 6.19523C10 6.19716 10 6.1991 10 6.20104C10 6.20298 10 6.20493 10 6.20688C10 6.20884 10 6.21079 10 6.21276C10 6.21472 10 6.21669 10 6.21866C10 6.22064 10 6.22262 10 6.2246C10 6.22659 10 6.22858 10 6.23058C10 6.23257 10 6.23457 10 6.23658C10 6.23859 10 6.2406 10 6.24262C10 6.24464 10 6.24666 10 6.24869C10 6.25072 10 6.25275 10 6.25479C10 6.25683 10 6.25888 10 6.26093C10 6.26298 10 6.26504 10 6.2671C10 6.26916 10 6.27123 10 6.2733C10 6.27537 10 6.27745 10 6.27954C10 6.28162 10 6.28371 10 6.28581C10 6.2879 10 6.29 10 6.29211C10 6.29422 10 6.29633 10 6.29845C10 6.30056 10 6.30269 10 6.30482C10 6.30695 10 6.30908 10 6.31122C10 6.31336 10 6.31551 10 6.31766C10 6.31981 10 6.32197 10 6.32413C10 6.3263 10 6.32846 10 6.33064C10 6.33281 10 6.33499 10 6.33718C10 6.33936 10 6.34156 10 6.34375C10 6.34595 10 6.34815 10 6.35036C10 6.35257 10 6.35479 10 6.35701C10 6.35923 10 6.36145 10 6.36368C10 6.36592 10 6.36815 10 6.3704C10 6.37264 10 6.37489 10 6.37714C10 6.3794 10 6.38166 10 6.38393C10 6.38619 10 6.38846 10 6.39074C10 6.39302 10 6.3953 10 6.39759C10 6.39988 10 6.40218 10 6.40448C10 6.40678 10 6.40909 10 6.4114C10 6.41372 10 6.41604 10 6.41836C10 6.42069 10 6.42302 10 6.42535C10 6.42769 10 6.43003 10 6.43238C10 6.43473 10 6.43708 10 6.43944C10 6.4418 10 6.44417 10 6.44654C10 6.44892 10 6.45129 10 6.45368C10 6.45606 10 6.45845 10 6.46085C10 6.46324 10 6.46565 10 6.46805C10 6.47046 10 6.47288 10 6.4753C10 6.47772 10 6.48014 10 6.48258C10 6.48501 10 6.48745 10 6.48989C10 6.49233 10 6.49478 10 6.49724C10 6.4997 10 6.50216 10 6.50463C10 6.5071 10 6.50957 10 6.51205C10 6.51453 10 6.51702 10 6.51951C10 6.522 10 6.5245 10 6.52701C10 6.52951 10 6.53202 10 6.53454C10 6.53706 10 6.53958 10 6.54211C10 6.54464 10 6.54717 10 6.54972C10 6.55226 10 6.55481 10 6.55736C10 6.55991 10 6.56247 10 6.56504C10 6.56761 10 6.57018 10 6.57276C10 6.57534 10 6.57792 10 6.58051C10 6.5831 10 6.5857 10 6.5883C10 6.59091 10 6.59352 10 6.59613C10 6.59875 10 6.60137 10 6.604C10 6.60663 10 6.60926 10 6.61191C10 6.61455 10 6.61719 10 6.61985C10 6.6225 10 6.62516 10 6.62783C10 6.63049 10 6.63317 10 6.63584C10 6.63852 10 6.64121 10 6.6439C10 6.64659 10 6.64929 10 6.65199C10 6.6547 10 6.65741 10 6.66013C10 6.66284 10 6.66557 10 6.6683C10 6.67103 10 6.67376 10 6.6765C10 6.67925 10 6.68199 10 6.68475C10 6.68751 10 6.69027 10 6.69303C10 6.6958 10 6.69858 10 6.70136C10 6.70414 10 6.70693 10 6.70972C10 6.71251 10 6.71531 10 6.71812C10 6.72093 10 6.72374 10 6.72656C10 6.72938 10 6.73221 10 6.73504C10 6.73787 10 6.74071 10 6.74356C10 6.7464 10 6.74925 10 6.75211C10 6.75497 10 6.75784 10 6.76071C10 6.76358 10 6.76646 10 6.76934C10 6.77223 10 6.77512 10 6.77802C10 6.78092 10 6.78382 10 6.78673C10 6.78964 10 6.79256 10 6.79549C10 6.79841 10 6.80134 10 6.80428C10 6.80722 10 6.81016 10 6.81311C10 6.81606 10 6.81902 10 6.82198C10 6.82495 10 6.82792 10 6.83089C10 6.83387 10 6.83686 10 6.83985C10 6.84284 10 6.84584 10 6.84884C10 6.85184 10 6.85485 10 6.85787C10 6.86089 10 6.86391 10 6.86694C10 6.86998 10 6.87301 10 6.87606C10 6.8791 10 6.88215 10 6.88521C10 6.88827 10 6.89133 10 6.8944C10 6.89748 10 6.90055 10 6.90364C10 6.90672 10 6.90982 10 6.91291C10 6.91601 10 6.91912 10 6.92223C10 6.92534 10 6.92846 10 6.93159C10 6.93471 10 6.93784 10 6.94098C10 6.94412 10 6.94727 10 6.95042C10 6.95358 10 6.95674 10 6.9599C10 6.96307 10 6.96624 10 6.96942C10 6.9726 10 6.97579 10 6.97899C10 6.98218 10 6.98538 10 6.98859C10 6.9918 10 6.99501 10 6.99823C10 7.00146 10 7.00469 10 7.00792C10 7.01116 10 7.0144 10 7.01765C10 7.0209 10 7.02416 10 7.02742C10 7.03068 10 7.03395 10 7.03723C10 7.04051 10 7.04379 10 7.04709C10 7.05038 10 7.05368 10 7.05698C10 7.06029 10 7.0636 10 7.06692C10 7.07024 10 7.07357 10 7.0769C10 7.08023 10 7.08358 10 7.08692C10 7.09027 10 7.09363 10 7.09699C10 7.10035 10 7.10372 10 7.1071C10 7.11047 10 7.11386 10 7.11725C10 7.12064 10 7.12403 10 7.12744C10 7.13084 10 7.13426 10 7.13767C10 7.14109 10 7.14452 10 7.14795C10 7.15139 10 7.15483 10 7.15827C10 7.16172 10 7.16518 10 7.16864C10 7.1721 10 7.17557 10 7.17904C10 7.18252 10 7.186 10 7.1895C10 7.19299 10 7.19648 10 7.19999C10 7.20349 10 7.20701 10 7.21053C10 7.21405 10 7.21757 10 7.22111C10 7.22464 10 7.22818 10 7.23173C10 7.23528 10 7.23884 10 7.2424C10 7.24596 10 7.24953 10 7.25311C10 7.25669 10 7.26027 10 7.26386C10 7.26746 10 7.27106 10 7.27466C10 7.27827 10 7.28189 10 7.28551C10 7.28913 10 7.29276 10 7.29639C10 7.30003 10 7.30367 10 7.30733C10 7.31098 10 7.31464 10 7.3183C10 7.32197 10 7.32564 10 7.32932C10 7.333 10 7.33669 10 7.34039C10 7.34408 10 7.34778 10 7.35149C10 7.3552 10 7.35892 10 7.36265C10 7.36637 10 7.37011 10 7.37385C10 7.37759 10 7.38133 10 7.38509C10 7.38884 10 7.39261 10 7.39638C10 7.40015 10 7.40392 10 7.40771C10 7.4115 10 7.41529 10 7.41909C10 7.42289 10 7.4267 10 7.43051C10 7.43433 10 7.43815 10 7.44198C10 7.44581 10 7.44965 10 7.45349C10 7.45734 10 7.46119 10 7.46505C10 7.46891 10 7.47278 10 7.47666C10 7.48053 10 7.48442 10 7.48831C10 7.4922 10 7.4961 10 7.5H11ZM10.5 5L4.5 5L4.5 6L10.5 6L10.5 5ZM4.5 5.5C4 5.5 4 5.5 4 5.5C4 5.5 4 5.5 4 5.5C4 5.5 4 5.5 4 5.5C4 5.5 4 5.5 4 5.5C4 5.5 4 5.5 4 5.5C4 5.5 4 5.5 4 5.5C4 5.5 4 5.5 4 5.50001C4 5.50001 4 5.50001 4 5.50001C4 5.50001 4 5.50001 4 5.50001C4 5.50001 4 5.50001 4 5.50001C4 5.50002 4 5.50002 4 5.50002C4 5.50002 4 5.50002 4 5.50003C4 5.50003 4 5.50003 4 5.50003C4 5.50004 4 5.50004 4 5.50004C4 5.50004 4 5.50005 4 5.50005C4 5.50005 4 5.50006 4 5.50006C4 5.50006 4 5.50007 4 5.50007C4 5.50008 4 5.50008 4 5.50009C4 5.50009 4 5.5001 4 5.5001C4 5.50011 4 5.50011 4 5.50012C4 5.50013 4 5.50013 4 5.50014C4 5.50014 4 5.50015 4 5.50016C4 5.50017 4 5.50017 4 5.50018C4 5.50019 4 5.5002 4 5.50021C4 5.50021 4 5.50022 4 5.50023C4 5.50024 4 5.50025 4 5.50026C4 5.50027 4 5.50028 4 5.50029C4 5.5003 4 5.50032 4 5.50033C4 5.50034 4 5.50035 4 5.50036C4 5.50038 4 5.50039 4 5.5004C4 5.50042 4 5.50043 4 5.50044C4 5.50046 4 5.50047 4 5.50049C4 5.5005 4 5.50052 4 5.50054C4 5.50055 4 5.50057 4 5.50059C4 5.5006 4 5.50062 4 5.50064C4 5.50066 4 5.50068 4 5.5007C4 5.50071 4 5.50073 4 5.50075C4 5.50078 4 5.5008 4 5.50082C4 5.50084 4 5.50086 4 5.50088C4 5.50091 4 5.50093 4 5.50095C4 5.50098 4 5.501 4 5.50103C4 5.50105 4 5.50108 4 5.5011C4 5.50113 4 5.50116 4 5.50118C4 5.50121 4 5.50124 4 5.50127C4 5.5013 4 5.50133 4 5.50136C4 5.50139 4 5.50142 4 5.50145C4 5.50148 4 5.50151 4 5.50155C4 5.50158 4 5.50161 4 5.50165C4 5.50168 4 5.50172 4 5.50175C4 5.50179 4 5.50183 4 5.50186C4 5.5019 4 5.50194 4 5.50198C4 5.50202 4 5.50206 4 5.5021C4 5.50214 4 5.50218 4 5.50222C4 5.50226 4 5.5023 4 5.50235C4 5.50239 4 5.50243 4 5.50248C4 5.50252 4 5.50257 4 5.50262C4 5.50266 4 5.50271 4 5.50276C4 5.50281 4 5.50286 4 5.50291C4 5.50296 4 5.50301 4 5.50306C4 5.50311 4 5.50317 4 5.50322C4 5.50327 4 5.50333 4 5.50338C4 5.50344 4 5.50349 4 5.50355C4 5.50361 4 5.50367 4 5.50373C4 5.50379 4 5.50385 4 5.50391C4 5.50397 4 5.50403 4 5.50409C4 5.50416 4 5.50422 4 5.50428C4 5.50435 4 5.50442 4 5.50448C4 5.50455 4 5.50462 4 5.50469C4 5.50475 4 5.50482 4 5.5049C4 5.50497 4 5.50504 4 5.50511C4 5.50518 4 5.50526 4 5.50533C4 5.50541 4 5.50548 4 5.50556C4 5.50564 4 5.50572 4 5.5058C4 5.50588 4 5.50596 4 5.50604C4 5.50612 4 5.5062 4 5.50629C4 5.50637 4 5.50646 4 5.50654C4 5.50663 4 5.50671 4 5.5068C4 5.50689 4 5.50698 4 5.50707C4 5.50716 4 5.50725 4 5.50735C4 5.50744 4 5.50753 4 5.50763C4 5.50773 4 5.50782 4 5.50792C4 5.50802 4 5.50812 4 5.50822C4 5.50832 4 5.50842 4 5.50852C4 5.50862 4 5.50873 4 5.50883C4 5.50894 4 5.50904 4 5.50915C4 5.50926 4 5.50937 4 5.50948C4 5.50959 4 5.5097 4 5.50981C4 5.50993 4 5.51004 4 5.51016C4 5.51027 4 5.51039 4 5.51051C4 5.51062 4 5.51074 4 5.51086C4 5.51098 4 5.51111 4 5.51123C4 5.51135 4 5.51148 4 5.5116C4 5.51173 4 5.51186 4 5.51199C4 5.51212 4 5.51225 4 5.51238C4 5.51251 4 5.51264 4 5.51278C4 5.51291 4 5.51305 4 5.51318C4 5.51332 4 5.51346 4 5.5136C4 5.51374 4 5.51388 4 5.51403C4 5.51417 4 5.51431 4 5.51446C4 5.51461 4 5.51475 4 5.5149C4 5.51505 4 5.5152 4 5.51535C4 5.51551 4 5.51566 4 5.51581C4 5.51597 4 5.51613 4 5.51628C4 5.51644 4 5.5166 4 5.51676C4 5.51692 4 5.51709 4 5.51725C4 5.51741 4 5.51758 4 5.51775C4 5.51792 4 5.51808 4 5.51826C4 5.51843 4 5.5186 4 5.51877C4 5.51895 4 5.51912 4 5.5193C4 5.51948 4 5.51965 4 5.51983C4 5.52001 4 5.5202 4 5.52038C4 5.52056 4 5.52075 4 5.52094C4 5.52112 4 5.52131 4 5.5215C4 5.52169 4 5.52188 4 5.52208C4 5.52227 4 5.52247 4 5.52266C4 5.52286 4 5.52306 4 5.52326C4 5.52346 4 5.52366 4 5.52387C4 5.52407 4 5.52428 4 5.52448C4 5.52469 4 5.5249 4 5.52511C4 5.52532 4 5.52554 4 5.52575C4 5.52596 4 5.52618 4 5.5264C4 5.52662 4 5.52684 4 5.52706C4 5.52728 4 5.5275 4 5.52773C4 5.52796 4 5.52818 4 5.52841C4 5.52864 4 5.52887 4 5.5291C4 5.52934 4 5.52957 4 5.52981C4 5.53005 4 5.53028 4 5.53052C4 5.53076 4 5.53101 4 5.53125C4 5.53149 4 5.53174 4 5.53199C4 5.53224 4 5.53249 4 5.53274C4 5.53299 4 5.53324 4 5.5335C4 5.53376 4 5.53401 4 5.53427C4 5.53453 4 5.53479 4 5.53506C4 5.53532 4 5.53559 4 5.53585C4 5.53612 4 5.53639 4 5.53666C4 5.53693 4 5.53721 4 5.53748C4 5.53776 4 5.53804 4 5.53832C4 5.5386 4 5.53888 4 5.53916C4 5.53945 4 5.53973 4 5.54002C4 5.54031 4 5.5406 4 5.54089C4 5.54118 4 5.54148 4 5.54177C4 5.54207 4 5.54237 4 5.54267C4 5.54297 4 5.54327 4 5.54358C4 5.54388 4 5.54419 4 5.5445C4 5.5448 4 5.54512 4 5.54543C4 5.54574 4 5.54606 4 5.54638C4 5.54669 4 5.54701 4 5.54733C4 5.54766 4 5.54798 4 5.54831C4 5.54863 4 5.54896 4 5.54929C4 5.54962 4 5.54996 4 5.55029C4 5.55063 4 5.55097 4 5.55131C4 5.55164 4 5.55199 4 5.55233C4 5.55268 4 5.55302 4 5.55337C4 5.55372 4 5.55407 4 5.55442C4 5.55478 4 5.55513 4 5.55549C4 5.55585 4 5.55621 4 5.55657C4 5.55693 4 5.5573 4 5.55767C4 5.55803 4 5.5584 4 5.55878C4 5.55915 4 5.55952 4 5.5599C4 5.56028 4 5.56065 4 5.56104C4 5.56142 4 5.5618 4 5.56219C4 5.56257 4 5.56296 4 5.56335C4 5.56374 4 5.56414 4 5.56453C4 5.56493 4 5.56533 4 5.56573C4 5.56613 4 5.56653 4 5.56694C4 5.56734 4 5.56775 4 5.56816C4 5.56857 4 5.56899 4 5.5694C4 5.56982 4 5.57024 4 5.57066C4 5.57108 4 5.5715 4 5.57193C4 5.57235 4 5.57278 4 5.57321C4 5.57364 4 5.57407 4 5.57451C4 5.57495 4 5.57538 4 5.57583C4 5.57627 4 5.57671 4 5.57716C4 5.5776 4 5.57805 4 5.5785C4 5.57895 4 5.57941 4 5.57986C4 5.58032 4 5.58078 4 5.58124C4 5.5817 4 5.58216 4 5.58263C4 5.5831 4 5.58357 4 5.58404C4 5.58451 4 5.58499 4 5.58546C4 5.58594 4 5.58642 4 5.5869C4 5.58739 4 5.58787 4 5.58836C4 5.58885 4 5.58934 4 5.58983C4 5.59033 4 5.59082 4 5.59132C4 5.59182 4 5.59232 4 5.59283C4 5.59333 4 5.59384 4 5.59435C4 5.59486 4 5.59537 4 5.59589C4 5.5964 4 5.59692 4 5.59744C4 5.59796 4 5.59849 4 5.59901C4 5.59954 4 5.60007 4 5.6006C4 5.60114 4 5.60167 4 5.60221C4 5.60275 4 5.60329 4 5.60383C4 5.60437 4 5.60492 4 5.60547C4 5.60602 4 5.60657 4 5.60713C4 5.60768 4 5.60824 4 5.6088C4 5.60936 4 5.60993 4 5.61049C4 5.61106 4 5.61163 4 5.6122C4 5.61277 4 5.61335 4 5.61393C4 5.6145 4 5.61509 4 5.61567C4 5.61625 4 5.61684 4 5.61743C4 5.61802 4 5.61861 4 5.61921C4 5.61981 4 5.62041 4 5.62101C4 5.62161 4 5.62222 4 5.62282C4 5.62343 4 5.62404 4 5.62466C4 5.62527 4 5.62589 4 5.62651C4 5.62713 4 5.62775 4 5.62838C4 5.629 4 5.62963 4 5.63026C4 5.6309 4 5.63153 4 5.63217C4 5.63281 4 5.63345 4 5.6341C4 5.63474 4 5.63539 4 5.63604C4 5.63669 4 5.63734 4 5.638C4 5.63866 4 5.63932 4 5.63998C4 5.64065 4 5.64131 4 5.64198C4 5.64265 4 5.64332 4 5.644C4 5.64468 4 5.64536 4 5.64604C4 5.64672 4 5.64741 4 5.6481C4 5.64878 4 5.64948 4 5.65017C4 5.65087 4 5.65156 4 5.65227C4 5.65297 4 5.65367 4 5.65438C4 5.65509 4 5.6558 4 5.65652C4 5.65723 4 5.65795 4 5.65867C4 5.65939 4 5.66012 4 5.66084C4 5.66157 4 5.6623 4 5.66304C4 5.66377 4 5.66451 4 5.66525C4 5.66599 4 5.66673 4 5.66748C4 5.66823 4 5.66898 4 5.66974C4 5.67049 4 5.67125 4 5.67201C4 5.67277 4 5.67353 4 5.6743C4 5.67507 4 5.67584 4 5.67662C4 5.67739 4 5.67817 4 5.67895C4 5.67973 4 5.68052 4 5.6813C4 5.68209 4 5.68288 4 5.68368C4 5.68447 4 5.68527 4 5.68608C4 5.68688 4 5.68768 4 5.68849C4 5.6893 4 5.69011 4 5.69093C4 5.69175 4 5.69256 4 5.69339C4 5.69421 4 5.69504 4 5.69587C4 5.6967 4 5.69753 4 5.69837C4 5.6992 4 5.70004 4 5.70089C4 5.70173 4 5.70258 4 5.70343C4 5.70428 4 5.70514 4 5.706C4 5.70685 4 5.70772 4 5.70858C4 5.70945 4 5.71032 4 5.71119C4 5.71206 4 5.71294 4 5.71382C4 5.7147 4 5.71558 4 5.71647C4 5.71736 4 5.71825 4 5.71914C4 5.72003 4 5.72093 4 5.72183C4 5.72274 4 5.72364 4 5.72455C4 5.72546 4 5.72637 4 5.72729C4 5.72821 4 5.72913 4 5.73005C4 5.73097 4 5.7319 4 5.73283C4 5.73376 4 5.7347 4 5.73564C4 5.73658 4 5.73752 4 5.73847C4 5.73941 4 5.74036 4 5.74132C4 5.74227 4 5.74323 4 5.74419C4 5.74515 4 5.74612 4 5.74708C4 5.74805 4 5.74903 4 5.75C4 5.75098 4 5.75196 4 5.75294C4 5.75393 4 5.75492 4 5.75591C4 5.7569 4 5.7579 4 5.75889C4 5.75989 4 5.7609 4 5.76191C4 5.76291 4 5.76392 4 5.76494C4 5.76595 4 5.76697 4 5.768C4 5.76902 4 5.77005 4 5.77108C4 5.77211 4 5.77314 4 5.77418C4 5.77522 4 5.77626 4 5.77731C4 5.77835 4 5.7794 4 5.78046C4 5.78151 4 5.78257 4 5.78363C4 5.7847 4 5.78576 4 5.78683C4 5.7879 4 5.78898 4 5.79006C4 5.79113 4 5.79222 4 5.7933C4 5.79439 4 5.79548 4 5.79657C4 5.79767 4 5.79877 4 5.79987C4 5.80097 4 5.80208 4 5.80319C4 5.8043 4 5.80541 4 5.80653C4 5.80765 4 5.80877 4 5.8099C4 5.81103 4 5.81216 4 5.81329C4 5.81443 4 5.81557 4 5.81671C4 5.81785 4 5.819 4 5.82015C4 5.8213 4 5.82246 4 5.82362C4 5.82478 4 5.82594 4 5.82711C4 5.82828 4 5.82945 4 5.83063C4 5.83181 4 5.83299 4 5.83417C4 5.83536 4 5.83655 4 5.83774C4 5.83893 4 5.84013 4 5.84133C4 5.84254 4 5.84374 4 5.84495C4 5.84616 4 5.84738 4 5.8486C4 5.84981 4 5.85104 4 5.85226C4 5.85349 4 5.85472 4 5.85596C4 5.8572 4 5.85844 4 5.85968C4 5.86093 4 5.86217 4 5.86343C4 5.86468 4 5.86594 4 5.8672C4 5.86846 4 5.86973 4 5.871C4 5.87227 4 5.87354 4 5.87482C4 5.8761 4 5.87739 4 5.87867C4 5.87996 4 5.88125 4 5.88255C4 5.88385 4 5.88515 4 5.88645C4 5.88776 4 5.88907 4 5.89038C4 5.8917 4 5.89302 4 5.89434C4 5.89566 4 5.89699 4 5.89832C4 5.89966 4 5.90099 4 5.90233C4 5.90368 4 5.90502 4 5.90637C4 5.90772 4 5.90908 4 5.91043C4 5.91179 4 5.91316 4 5.91453C4 5.91589 4 5.91727 4 5.91864C4 5.92002 4 5.9214 4 5.92279C4 5.92417 4 5.92556 4 5.92696C4 5.92836 4 5.92976 4 5.93116C4 5.93256 4 5.93397 4 5.93539C4 5.9368 4 5.93822 4 5.93964C4 5.94106 4 5.94249 4 5.94392C4 5.94536 4 5.94679 4 5.94823C4 5.94967 4 5.95112 4 5.95257C4 5.95402 4 5.95548 4 5.95694C4 5.9584 4 5.95986 4 5.96133C4 5.9628 4 5.96427 4 5.96575C4 5.96723 4 5.96871 4 5.9702C4 5.97169 4 5.97318 4 5.97468C4 5.97618 4 5.97768 4 5.97919C4 5.98069 4 5.9822 4 5.98372C4 5.98524 4 5.98676 4 5.98828C4 5.98981 4 5.99134 4 5.99288C4 5.99441 4 5.99595 4 5.9975C4 5.99904 4 6.00059 4 6.00215C4 6.0037 4 6.00526 4 6.00682C4 6.00839 4 6.00996 4 6.01153C4 6.01311 4 6.01468 4 6.01627C4 6.01785 4 6.01944 4 6.02103C4 6.02263 4 6.02423 4 6.02583C4 6.02743 4 6.02904 4 6.03065C4 6.03227 4 6.03388 4 6.03551C4 6.03713 4 6.03876 4 6.04039C4 6.04202 4 6.04366 4 6.0453C4 6.04694 4 6.04859 4 6.05024C4 6.0519 4 6.05355 4 6.05522C4 6.05688 4 6.05855 4 6.06022C4 6.06189 4 6.06357 4 6.06525C4 6.06693 4 6.06862 4 6.07031C4 6.072 4 6.0737 4 6.0754C4 6.07711 4 6.07881 4 6.08053C4 6.08224 4 6.08396 4 6.08568C4 6.0874 4 6.08913 4 6.09086C4 6.09259 4 6.09433 4 6.09607C4 6.09782 4 6.09957 4 6.10132C4 6.10307 4 6.10483 4 6.10659C4 6.10836 4 6.11013 4 6.1119C4 6.11367 4 6.11545 4 6.11724C4 6.11902 4 6.12081 4 6.1226C4 6.1244 4 6.1262 4 6.128C4 6.12981 4 6.13161 4 6.13343C4 6.13524 4 6.13707 4 6.13889C4 6.14072 4 6.14255 4 6.14438C4 6.14622 4 6.14806 4 6.14991C4 6.15175 4 6.1536 4 6.15546C4 6.15732 4 6.15918 4 6.16105C4 6.16291 4 6.16479 4 6.16666C4 6.16854 4 6.17043 4 6.17231C4 6.1742 4 6.1761 4 6.178C4 6.17989 4 6.1818 4 6.18371C4 6.18562 4 6.18753 4 6.18945C4 6.19137 4 6.1933 4 6.19523C4 6.19716 4 6.1991 4 6.20104C4 6.20298 4 6.20493 4 6.20688C4 6.20884 4 6.21079 4 6.21276C4 6.21472 4 6.21669 4 6.21866C4 6.22064 4 6.22262 4 6.2246C4 6.22659 4 6.22858 4 6.23058C4 6.23257 4 6.23457 4 6.23658C4 6.23859 4 6.2406 4 6.24262C4 6.24464 4 6.24666 4 6.24869C4 6.25072 4 6.25275 4 6.25479C4 6.25683 4 6.25888 4 6.26093C4 6.26298 4 6.26504 4 6.2671C4 6.26916 4 6.27123 4 6.2733C4 6.27537 4 6.27745 4 6.27954C4 6.28162 4 6.28371 4 6.28581C4 6.2879 4 6.29 4 6.29211C4 6.29422 4 6.29633 4 6.29845C4 6.30056 4 6.30269 4 6.30482C4 6.30695 4 6.30908 4 6.31122C4 6.31336 4 6.31551 4 6.31766C4 6.31981 4 6.32197 4 6.32413C4 6.3263 4 6.32846 4 6.33064C4 6.33281 4 6.33499 4 6.33718C4 6.33936 4 6.34156 4 6.34375C4 6.34595 4 6.34815 4 6.35036C4 6.35257 4 6.35479 4 6.35701C4 6.35923 4 6.36145 4 6.36368C4 6.36592 4 6.36815 4 6.3704C4 6.37264 4 6.37489 4 6.37714C4 6.3794 4 6.38166 4 6.38393C4 6.38619 4 6.38846 4 6.39074C4 6.39302 4 6.3953 4 6.39759C4 6.39988 4 6.40218 4 6.40448C4 6.40678 4 6.40909 4 6.4114C4 6.41372 4 6.41604 4 6.41836C4 6.42069 4 6.42302 4 6.42535C4 6.42769 4 6.43003 4 6.43238C4 6.43473 4 6.43708 4 6.43944C4 6.4418 4 6.44417 4 6.44654C4 6.44892 4 6.45129 4 6.45368C4 6.45606 4 6.45845 4 6.46085C4 6.46324 4 6.46565 4 6.46805C4 6.47046 4 6.47288 4 6.4753C4 6.47772 4 6.48014 4 6.48257C4 6.48501 4 6.48745 4 6.48989C4 6.49233 4 6.49478 4 6.49724C4 6.4997 4 6.50216 4 6.50463C4 6.5071 4 6.50957 4 6.51205C4 6.51453 4 6.51702 4 6.51951C4 6.522 4 6.5245 4 6.52701C4 6.52951 4 6.53202 4 6.53454C4 6.53706 4 6.53958 4 6.54211C4 6.54464 4 6.54717 4 6.54972C4 6.55226 4 6.55481 4 6.55736C4 6.55991 4 6.56247 4 6.56504C4 6.56761 4 6.57018 4 6.57276C4 6.57534 4 6.57792 4 6.58051C4 6.5831 4 6.5857 4 6.5883C4 6.59091 4 6.59352 4 6.59613C4 6.59875 4 6.60137 4 6.604C4 6.60663 4 6.60926 4 6.61191C4 6.61455 4 6.61719 4 6.61985C4 6.6225 4 6.62516 4 6.62783C4 6.63049 4 6.63317 4 6.63584C4 6.63852 4 6.64121 4 6.6439C4 6.64659 4 6.64929 4 6.65199C4 6.6547 4 6.65741 4 6.66013C4 6.66284 4 6.66557 4 6.6683C4 6.67103 4 6.67376 4 6.6765C4 6.67925 4 6.68199 4 6.68475C4 6.68751 4 6.69027 4 6.69303C4 6.6958 4 6.69858 4 6.70136C4 6.70414 4 6.70693 4 6.70972C4 6.71251 4 6.71531 4 6.71812C4 6.72093 4 6.72374 4 6.72656C4 6.72938 4 6.73221 4 6.73504C4 6.73787 4 6.74071 4 6.74356C4 6.7464 4 6.74925 4 6.75211C4 6.75497 4 6.75784 4 6.76071C4 6.76358 4 6.76646 4 6.76934C4 6.77223 4 6.77512 4 6.77802C4 6.78092 4 6.78382 4 6.78673C4 6.78964 4 6.79256 4 6.79549C4 6.79841 4 6.80134 4 6.80428C4 6.80722 4 6.81016 4 6.81311C4 6.81606 4 6.81902 4 6.82198C4 6.82495 4 6.82792 4 6.83089C4 6.83387 4 6.83686 4 6.83985C4 6.84284 4 6.84584 4 6.84884C4 6.85184 4 6.85485 4 6.85787C4 6.86089 4 6.86391 4 6.86694C4 6.86998 4 6.87301 4 6.87606C4 6.8791 4 6.88215 4 6.88521C4 6.88827 4 6.89133 4 6.8944C4 6.89748 4 6.90055 4 6.90364C4 6.90672 4 6.90982 4 6.91291C4 6.91601 4 6.91912 4 6.92223C4 6.92534 4 6.92846 4 6.93159C4 6.93471 4 6.93784 4 6.94098C4 6.94412 4 6.94727 4 6.95042C4 6.95358 4 6.95674 4 6.9599C4 6.96307 4 6.96624 4 6.96942C4 6.9726 4 6.97579 4 6.97899C4 6.98218 4 6.98538 4 6.98859C4 6.9918 4 6.99501 4 6.99823C4 7.00146 4 7.00469 4 7.00792C4 7.01116 4 7.0144 4 7.01765C4 7.0209 4 7.02416 4 7.02742C4 7.03068 4 7.03395 4 7.03723C4 7.04051 4 7.04379 4 7.04709C4 7.05038 4 7.05368 4 7.05698C4 7.06029 4 7.0636 4 7.06692C4 7.07024 4 7.07357 4 7.0769C4 7.08023 4 7.08358 4 7.08692C4 7.09027 4 7.09363 4 7.09699C4 7.10035 4 7.10372 4 7.1071C4 7.11047 4 7.11386 4 7.11725C4 7.12064 4 7.12403 4 7.12744C4 7.13084 4 7.13426 4 7.13767C4 7.14109 4 7.14452 4 7.14795C4 7.15139 4 7.15483 4 7.15827C4 7.16172 4 7.16518 4 7.16864C4 7.1721 4 7.17557 4 7.17904C4 7.18252 4 7.186 4 7.1895C4 7.19299 4 7.19648 4 7.19999C4 7.20349 4 7.20701 4 7.21053C4 7.21405 4 7.21757 4 7.22111C4 7.22464 4 7.22818 4 7.23173C4 7.23528 4 7.23884 4 7.2424C4 7.24596 4 7.24953 4 7.25311C4 7.25669 4 7.26027 4 7.26386C4 7.26746 4 7.27106 4 7.27466C4 7.27827 4 7.28189 4 7.28551C4 7.28913 4 7.29276 4 7.29639C4 7.30003 4 7.30367 4 7.30733C4 7.31098 4 7.31464 4 7.3183C4 7.32197 4 7.32564 4 7.32932C4 7.333 4 7.33669 4 7.34039C4 7.34408 4 7.34778 4 7.35149C4 7.3552 4 7.35892 4 7.36265C4 7.36637 4 7.37011 4 7.37385C4 7.37759 4 7.38133 4 7.38509C4 7.38884 4 7.39261 4 7.39638C4 7.40015 4 7.40392 4 7.40771C4 7.4115 4 7.41529 4 7.41909C4 7.42289 4 7.4267 4 7.43051C4 7.43433 4 7.43815 4 7.44198C4 7.44581 4 7.44965 4 7.45349C4 7.45734 4 7.46119 4 7.46505C4 7.46891 4 7.47278 4 7.47666C4 7.48053 4 7.48442 4 7.48831C4 7.4922 4 7.4961 4 7.5H5C5 7.4961 5 7.4922 5 7.48831C5 7.48442 5 7.48053 5 7.47666C5 7.47278 5 7.46891 5 7.46505C5 7.46119 5 7.45734 5 7.45349C5 7.44965 5 7.44581 5 7.44198C5 7.43815 5 7.43433 5 7.43051C5 7.4267 5 7.42289 5 7.41909C5 7.41529 5 7.4115 5 7.40771C5 7.40392 5 7.40015 5 7.39638C5 7.39261 5 7.38884 5 7.38509C5 7.38133 5 7.37759 5 7.37385C5 7.37011 5 7.36637 5 7.36265C5 7.35892 5 7.3552 5 7.35149C5 7.34778 5 7.34408 5 7.34039C5 7.33669 5 7.333 5 7.32932C5 7.32564 5 7.32197 5 7.3183C5 7.31464 5 7.31098 5 7.30733C5 7.30367 5 7.30003 5 7.29639C5 7.29276 5 7.28913 5 7.28551C5 7.28189 5 7.27827 5 7.27466C5 7.27106 5 7.26746 5 7.26386C5 7.26027 5 7.25669 5 7.25311C5 7.24953 5 7.24596 5 7.2424C5 7.23884 5 7.23528 5 7.23173C5 7.22818 5 7.22464 5 7.22111C5 7.21757 5 7.21405 5 7.21053C5 7.20701 5 7.20349 5 7.19999C5 7.19648 5 7.19299 5 7.1895C5 7.186 5 7.18252 5 7.17904C5 7.17557 5 7.1721 5 7.16864C5 7.16518 5 7.16172 5 7.15827C5 7.15483 5 7.15139 5 7.14795C5 7.14452 5 7.14109 5 7.13767C5 7.13426 5 7.13084 5 7.12744C5 7.12403 5 7.12064 5 7.11725C5 7.11386 5 7.11047 5 7.1071C5 7.10372 5 7.10035 5 7.09699C5 7.09363 5 7.09027 5 7.08692C5 7.08358 5 7.08023 5 7.0769C5 7.07357 5 7.07024 5 7.06692C5 7.0636 5 7.06029 5 7.05698C5 7.05368 5 7.05038 5 7.04709C5 7.04379 5 7.04051 5 7.03723C5 7.03395 5 7.03068 5 7.02742C5 7.02416 5 7.0209 5 7.01765C5 7.0144 5 7.01116 5 7.00792C5 7.00469 5 7.00146 5 6.99823C5 6.99501 5 6.9918 5 6.98859C5 6.98538 5 6.98218 5 6.97899C5 6.97579 5 6.9726 5 6.96942C5 6.96624 5 6.96307 5 6.9599C5 6.95674 5 6.95358 5 6.95042C5 6.94727 5 6.94412 5 6.94098C5 6.93784 5 6.93471 5 6.93159C5 6.92846 5 6.92534 5 6.92223C5 6.91912 5 6.91601 5 6.91291C5 6.90982 5 6.90672 5 6.90364C5 6.90055 5 6.89748 5 6.8944C5 6.89133 5 6.88827 5 6.88521C5 6.88215 5 6.8791 5 6.87606C5 6.87301 5 6.86998 5 6.86694C5 6.86391 5 6.86089 5 6.85787C5 6.85485 5 6.85184 5 6.84884C5 6.84584 5 6.84284 5 6.83985C5 6.83686 5 6.83387 5 6.83089C5 6.82792 5 6.82495 5 6.82198C5 6.81902 5 6.81606 5 6.81311C5 6.81016 5 6.80722 5 6.80428C5 6.80134 5 6.79841 5 6.79549C5 6.79256 5 6.78964 5 6.78673C5 6.78382 5 6.78092 5 6.77802C5 6.77512 5 6.77223 5 6.76934C5 6.76646 5 6.76358 5 6.76071C5 6.75784 5 6.75497 5 6.75211C5 6.74925 5 6.7464 5 6.74356C5 6.74071 5 6.73787 5 6.73504C5 6.73221 5 6.72938 5 6.72656C5 6.72374 5 6.72093 5 6.71812C5 6.71531 5 6.71251 5 6.70972C5 6.70693 5 6.70414 5 6.70136C5 6.69858 5 6.6958 5 6.69303C5 6.69027 5 6.68751 5 6.68475C5 6.68199 5 6.67925 5 6.6765C5 6.67376 5 6.67103 5 6.6683C5 6.66557 5 6.66284 5 6.66013C5 6.65741 5 6.6547 5 6.65199C5 6.64929 5 6.64659 5 6.6439C5 6.64121 5 6.63852 5 6.63584C5 6.63317 5 6.63049 5 6.62783C5 6.62516 5 6.6225 5 6.61985C5 6.61719 5 6.61455 5 6.61191C5 6.60926 5 6.60663 5 6.604C5 6.60137 5 6.59875 5 6.59613C5 6.59352 5 6.59091 5 6.5883C5 6.5857 5 6.5831 5 6.58051C5 6.57792 5 6.57534 5 6.57276C5 6.57018 5 6.56761 5 6.56504C5 6.56247 5 6.55991 5 6.55736C5 6.55481 5 6.55226 5 6.54972C5 6.54717 5 6.54464 5 6.54211C5 6.53958 5 6.53706 5 6.53454C5 6.53202 5 6.52951 5 6.52701C5 6.5245 5 6.522 5 6.51951C5 6.51702 5 6.51453 5 6.51205C5 6.50957 5 6.5071 5 6.50463C5 6.50216 5 6.4997 5 6.49724C5 6.49478 5 6.49233 5 6.48989C5 6.48745 5 6.48501 5 6.48257C5 6.48014 5 6.47772 5 6.4753C5 6.47288 5 6.47046 5 6.46805C5 6.46565 5 6.46324 5 6.46085C5 6.45845 5 6.45606 5 6.45368C5 6.45129 5 6.44892 5 6.44654C5 6.44417 5 6.4418 5 6.43944C5 6.43708 5 6.43473 5 6.43238C5 6.43003 5 6.42769 5 6.42535C5 6.42302 5 6.42069 5 6.41836C5 6.41604 5 6.41372 5 6.4114C5 6.40909 5 6.40678 5 6.40448C5 6.40218 5 6.39988 5 6.39759C5 6.3953 5 6.39302 5 6.39074C5 6.38846 5 6.38619 5 6.38393C5 6.38166 5 6.3794 5 6.37714C5 6.37489 5 6.37264 5 6.3704C5 6.36815 5 6.36592 5 6.36368C5 6.36145 5 6.35923 5 6.35701C5 6.35479 5 6.35257 5 6.35036C5 6.34815 5 6.34595 5 6.34375C5 6.34156 5 6.33936 5 6.33718C5 6.33499 5 6.33281 5 6.33064C5 6.32846 5 6.3263 5 6.32413C5 6.32197 5 6.31981 5 6.31766C5 6.31551 5 6.31336 5 6.31122C5 6.30908 5 6.30695 5 6.30482C5 6.30269 5 6.30056 5 6.29845C5 6.29633 5 6.29422 5 6.29211C5 6.29 5 6.2879 5 6.28581C5 6.28371 5 6.28162 5 6.27954C5 6.27745 5 6.27537 5 6.2733C5 6.27123 5 6.26916 5 6.2671C5 6.26504 5 6.26298 5 6.26093C5 6.25888 5 6.25683 5 6.25479C5 6.25275 5 6.25072 5 6.24869C5 6.24666 5 6.24464 5 6.24262C5 6.2406 5 6.23859 5 6.23658C5 6.23457 5 6.23257 5 6.23058C5 6.22858 5 6.22659 5 6.2246C5 6.22262 5 6.22064 5 6.21866C5 6.21669 5 6.21472 5 6.21276C5 6.21079 5 6.20884 5 6.20688C5 6.20493 5 6.20298 5 6.20104C5 6.1991 5 6.19716 5 6.19523C5 6.1933 5 6.19137 5 6.18945C5 6.18753 5 6.18562 5 6.18371C5 6.1818 5 6.17989 5 6.178C5 6.1761 5 6.1742 5 6.17231C5 6.17043 5 6.16854 5 6.16666C5 6.16479 5 6.16291 5 6.16105C5 6.15918 5 6.15732 5 6.15546C5 6.1536 5 6.15175 5 6.14991C5 6.14806 5 6.14622 5 6.14438C5 6.14255 5 6.14072 5 6.13889C5 6.13707 5 6.13524 5 6.13343C5 6.13161 5 6.12981 5 6.128C5 6.1262 5 6.1244 5 6.1226C5 6.12081 5 6.11902 5 6.11724C5 6.11545 5 6.11367 5 6.1119C5 6.11013 5 6.10836 5 6.10659C5 6.10483 5 6.10307 5 6.10132C5 6.09957 5 6.09782 5 6.09607C5 6.09433 5 6.09259 5 6.09086C5 6.08913 5 6.0874 5 6.08568C5 6.08396 5 6.08224 5 6.08053C5 6.07881 5 6.07711 5 6.0754C5 6.0737 5 6.072 5 6.07031C5 6.06862 5 6.06693 5 6.06525C5 6.06357 5 6.06189 5 6.06022C5 6.05855 5 6.05688 5 6.05522C5 6.05355 5 6.0519 5 6.05024C5 6.04859 5 6.04694 5 6.0453C5 6.04366 5 6.04202 5 6.04039C5 6.03876 5 6.03713 5 6.03551C5 6.03388 5 6.03227 5 6.03065C5 6.02904 5 6.02743 5 6.02583C5 6.02423 5 6.02263 5 6.02103C5 6.01944 5 6.01785 5 6.01627C5 6.01468 5 6.01311 5 6.01153C5 6.00996 5 6.00839 5 6.00682C5 6.00526 5 6.0037 5 6.00215C5 6.00059 5 5.99904 5 5.9975C5 5.99595 5 5.99441 5 5.99288C5 5.99134 5 5.98981 5 5.98828C5 5.98676 5 5.98524 5 5.98372C5 5.9822 5 5.98069 5 5.97919C5 5.97768 5 5.97618 5 5.97468C5 5.97318 5 5.97169 5 5.9702C5 5.96871 5 5.96723 5 5.96575C5 5.96427 5 5.9628 5 5.96133C5 5.95986 5 5.9584 5 5.95694C5 5.95548 5 5.95402 5 5.95257C5 5.95112 5 5.94967 5 5.94823C5 5.94679 5 5.94536 5 5.94392C5 5.94249 5 5.94106 5 5.93964C5 5.93822 5 5.9368 5 5.93539C5 5.93397 5 5.93256 5 5.93116C5 5.92976 5 5.92836 5 5.92696C5 5.92556 5 5.92417 5 5.92279C5 5.9214 5 5.92002 5 5.91864C5 5.91727 5 5.91589 5 5.91453C5 5.91316 5 5.91179 5 5.91043C5 5.90908 5 5.90772 5 5.90637C5 5.90502 5 5.90368 5 5.90233C5 5.90099 5 5.89966 5 5.89832C5 5.89699 5 5.89566 5 5.89434C5 5.89302 5 5.8917 5 5.89038C5 5.88907 5 5.88776 5 5.88645C5 5.88515 5 5.88385 5 5.88255C5 5.88125 5 5.87996 5 5.87867C5 5.87739 5 5.8761 5 5.87482C5 5.87354 5 5.87227 5 5.871C5 5.86973 5 5.86846 5 5.8672C5 5.86594 5 5.86468 5 5.86343C5 5.86217 5 5.86093 5 5.85968C5 5.85844 5 5.8572 5 5.85596C5 5.85472 5 5.85349 5 5.85226C5 5.85104 5 5.84981 5 5.8486C5 5.84738 5 5.84616 5 5.84495C5 5.84374 5 5.84254 5 5.84133C5 5.84013 5 5.83893 5 5.83774C5 5.83655 5 5.83536 5 5.83417C5 5.83299 5 5.83181 5 5.83063C5 5.82945 5 5.82828 5 5.82711C5 5.82594 5 5.82478 5 5.82362C5 5.82246 5 5.8213 5 5.82015C5 5.819 5 5.81785 5 5.81671C5 5.81557 5 5.81443 5 5.81329C5 5.81216 5 5.81103 5 5.8099C5 5.80877 5 5.80765 5 5.80653C5 5.80541 5 5.8043 5 5.80319C5 5.80208 5 5.80097 5 5.79987C5 5.79877 5 5.79767 5 5.79657C5 5.79548 5 5.79439 5 5.7933C5 5.79222 5 5.79113 5 5.79006C5 5.78898 5 5.7879 5 5.78683C5 5.78576 5 5.7847 5 5.78363C5 5.78257 5 5.78151 5 5.78046C5 5.7794 5 5.77835 5 5.77731C5 5.77626 5 5.77522 5 5.77418C5 5.77314 5 5.77211 5 5.77108C5 5.77005 5 5.76902 5 5.768C5 5.76697 5 5.76595 5 5.76494C5 5.76392 5 5.76291 5 5.76191C5 5.7609 5 5.75989 5 5.75889C5 5.7579 5 5.7569 5 5.75591C5 5.75492 5 5.75393 5 5.75294C5 5.75196 5 5.75098 5 5.75C5 5.74903 5 5.74805 5 5.74708C5 5.74612 5 5.74515 5 5.74419C5 5.74323 5 5.74227 5 5.74132C5 5.74036 5 5.73941 5 5.73847C5 5.73752 5 5.73658 5 5.73564C5 5.7347 5 5.73376 5 5.73283C5 5.7319 5 5.73097 5 5.73005C5 5.72913 5 5.72821 5 5.72729C5 5.72637 5 5.72546 5 5.72455C5 5.72364 5 5.72274 5 5.72183C5 5.72093 5 5.72003 5 5.71914C5 5.71825 5 5.71736 5 5.71647C5 5.71558 5 5.7147 5 5.71382C5 5.71294 5 5.71206 5 5.71119C5 5.71032 5 5.70945 5 5.70858C5 5.70772 5 5.70685 5 5.706C5 5.70514 5 5.70428 5 5.70343C5 5.70258 5 5.70173 5 5.70089C5 5.70004 5 5.6992 5 5.69837C5 5.69753 5 5.6967 5 5.69587C5 5.69504 5 5.69421 5 5.69339C5 5.69256 5 5.69175 5 5.69093C5 5.69011 5 5.6893 5 5.68849C5 5.68768 5 5.68688 5 5.68608C5 5.68527 5 5.68447 5 5.68368C5 5.68288 5 5.68209 5 5.6813C5 5.68052 5 5.67973 5 5.67895C5 5.67817 5 5.67739 5 5.67662C5 5.67584 5 5.67507 5 5.6743C5 5.67353 5 5.67277 5 5.67201C5 5.67125 5 5.67049 5 5.66974C5 5.66898 5 5.66823 5 5.66748C5 5.66673 5 5.66599 5 5.66525C5 5.66451 5 5.66377 5 5.66304C5 5.6623 5 5.66157 5 5.66084C5 5.66012 5 5.65939 5 5.65867C5 5.65795 5 5.65723 5 5.65652C5 5.6558 5 5.65509 5 5.65438C5 5.65367 5 5.65297 5 5.65227C5 5.65156 5 5.65087 5 5.65017C5 5.64948 5 5.64878 5 5.6481C5 5.64741 5 5.64672 5 5.64604C5 5.64536 5 5.64468 5 5.644C5 5.64332 5 5.64265 5 5.64198C5 5.64131 5 5.64065 5 5.63998C5 5.63932 5 5.63866 5 5.638C5 5.63734 5 5.63669 5 5.63604C5 5.63539 5 5.63474 5 5.6341C5 5.63345 5 5.63281 5 5.63217C5 5.63153 5 5.6309 5 5.63026C5 5.62963 5 5.629 5 5.62838C5 5.62775 5 5.62713 5 5.62651C5 5.62589 5 5.62527 5 5.62466C5 5.62404 5 5.62343 5 5.62282C5 5.62222 5 5.62161 5 5.62101C5 5.62041 5 5.61981 5 5.61921C5 5.61861 5 5.61802 5 5.61743C5 5.61684 5 5.61625 5 5.61567C5 5.61509 5 5.6145 5 5.61393C5 5.61335 5 5.61277 5 5.6122C5 5.61163 5 5.61106 5 5.61049C5 5.60993 5 5.60936 5 5.6088C5 5.60824 5 5.60768 5 5.60713C5 5.60657 5 5.60602 5 5.60547C5 5.60492 5 5.60437 5 5.60383C5 5.60329 5 5.60275 5 5.60221C5 5.60167 5 5.60114 5 5.6006C5 5.60007 5 5.59954 5 5.59901C5 5.59849 5 5.59796 5 5.59744C5 5.59692 5 5.5964 5 5.59589C5 5.59537 5 5.59486 5 5.59435C5 5.59384 5 5.59333 5 5.59283C5 5.59232 5 5.59182 5 5.59132C5 5.59082 5 5.59033 5 5.58983C5 5.58934 5 5.58885 5 5.58836C5 5.58787 5 5.58739 5 5.5869C5 5.58642 5 5.58594 5 5.58546C5 5.58499 5 5.58451 5 5.58404C5 5.58357 5 5.5831 5 5.58263C5 5.58216 5 5.5817 5 5.58124C5 5.58078 5 5.58032 5 5.57986C5 5.57941 5 5.57895 5 5.5785C5 5.57805 5 5.5776 5 5.57716C5 5.57671 5 5.57627 5 5.57583C5 5.57538 5 5.57495 5 5.57451C5 5.57407 5 5.57364 5 5.57321C5 5.57278 5 5.57235 5 5.57193C5 5.5715 5 5.57108 5 5.57066C5 5.57024 5 5.56982 5 5.5694C5 5.56899 5 5.56857 5 5.56816C5 5.56775 5 5.56734 5 5.56694C5 5.56653 5 5.56613 5 5.56573C5 5.56533 5 5.56493 5 5.56453C5 5.56414 5 5.56374 5 5.56335C5 5.56296 5 5.56257 5 5.56219C5 5.5618 5 5.56142 5 5.56104C5 5.56065 5 5.56028 5 5.5599C5 5.55952 5 5.55915 5 5.55878C5 5.5584 5 5.55803 5 5.55767C5 5.5573 5 5.55693 5 5.55657C5 5.55621 5 5.55585 5 5.55549C5 5.55513 5 5.55478 5 5.55442C5 5.55407 5 5.55372 5 5.55337C5 5.55302 5 5.55268 5 5.55233C5 5.55199 5 5.55164 5 5.55131C5 5.55097 5 5.55063 5 5.55029C5 5.54996 5 5.54962 5 5.54929C5 5.54896 5 5.54863 5 5.54831C5 5.54798 5 5.54766 5 5.54733C5 5.54701 5 5.54669 5 5.54638C5 5.54606 5 5.54574 5 5.54543C5 5.54512 5 5.5448 5 5.5445C5 5.54419 5 5.54388 5 5.54358C5 5.54327 5 5.54297 5 5.54267C5 5.54237 5 5.54207 5 5.54177C5 5.54148 5 5.54118 5 5.54089C5 5.5406 5 5.54031 5 5.54002C5 5.53973 5 5.53945 5 5.53916C5 5.53888 5 5.5386 5 5.53832C5 5.53804 5 5.53776 5 5.53748C5 5.53721 5 5.53693 5 5.53666C5 5.53639 5 5.53612 5 5.53585C5 5.53559 5 5.53532 5 5.53506C5 5.53479 5 5.53453 5 5.53427C5 5.53401 5 5.53376 5 5.5335C5 5.53324 5 5.53299 5 5.53274C5 5.53249 5 5.53224 5 5.53199C5 5.53174 5 5.53149 5 5.53125C5 5.53101 5 5.53076 5 5.53052C5 5.53028 5 5.53005 5 5.52981C5 5.52957 5 5.52934 5 5.5291C5 5.52887 5 5.52864 5 5.52841C5 5.52818 5 5.52796 5 5.52773C5 5.5275 5 5.52728 5 5.52706C5 5.52684 5 5.52662 5 5.5264C5 5.52618 5 5.52596 5 5.52575C5 5.52554 5 5.52532 5 5.52511C5 5.5249 5 5.52469 5 5.52448C5 5.52428 5 5.52407 5 5.52387C5 5.52366 5 5.52346 5 5.52326C5 5.52306 5 5.52286 5 5.52266C5 5.52247 5 5.52227 5 5.52208C5 5.52188 5 5.52169 5 5.5215C5 5.52131 5 5.52112 5 5.52094C5 5.52075 5 5.52056 5 5.52038C5 5.5202 5 5.52001 5 5.51983C5 5.51965 5 5.51948 5 5.5193C5 5.51912 5 5.51895 5 5.51877C5 5.5186 5 5.51843 5 5.51826C5 5.51808 5 5.51792 5 5.51775C5 5.51758 5 5.51741 5 5.51725C5 5.51709 5 5.51692 5 5.51676C5 5.5166 5 5.51644 5 5.51628C5 5.51613 5 5.51597 5 5.51581C5 5.51566 5 5.51551 5 5.51535C5 5.5152 5 5.51505 5 5.5149C5 5.51475 5 5.51461 5 5.51446C5 5.51431 5 5.51417 5 5.51403C5 5.51388 5 5.51374 5 5.5136C5 5.51346 5 5.51332 5 5.51318C5 5.51305 5 5.51291 5 5.51278C5 5.51264 5 5.51251 5 5.51238C5 5.51225 5 5.51212 5 5.51199C5 5.51186 5 5.51173 5 5.5116C5 5.51148 5 5.51135 5 5.51123C5 5.51111 5 5.51098 5 5.51086C5 5.51074 5 5.51062 5 5.51051C5 5.51039 5 5.51027 5 5.51016C5 5.51004 5 5.50993 5 5.50981C5 5.5097 5 5.50959 5 5.50948C5 5.50937 5 5.50926 5 5.50915C5 5.50904 5 5.50894 5 5.50883C5 5.50873 5 5.50862 5 5.50852C5 5.50842 5 5.50832 5 5.50822C5 5.50812 5 5.50802 5 5.50792C5 5.50782 5 5.50773 5 5.50763C5 5.50753 5 5.50744 5 5.50735C5 5.50725 5 5.50716 5 5.50707C5 5.50698 5 5.50689 5 5.5068C5 5.50671 5 5.50663 5 5.50654C5 5.50646 5 5.50637 5 5.50629C5 5.5062 5 5.50612 5 5.50604C5 5.50596 5 5.50588 5 5.5058C5 5.50572 5 5.50564 5 5.50556C5 5.50548 5 5.50541 5 5.50533C5 5.50526 5 5.50518 5 5.50511C5 5.50504 5 5.50497 5 5.5049C5 5.50482 5 5.50475 5 5.50469C5 5.50462 5 5.50455 5 5.50448C5 5.50442 5 5.50435 5 5.50428C5 5.50422 5 5.50416 5 5.50409C5 5.50403 5 5.50397 5 5.50391C5 5.50385 5 5.50379 5 5.50373C5 5.50367 5 5.50361 5 5.50355C5 5.50349 5 5.50344 5 5.50338C5 5.50333 5 5.50327 5 5.50322C5 5.50317 5 5.50311 5 5.50306C5 5.50301 5 5.50296 5 5.50291C5 5.50286 5 5.50281 5 5.50276C5 5.50271 5 5.50266 5 5.50262C5 5.50257 5 5.50252 5 5.50248C5 5.50243 5 5.50239 5 5.50235C5 5.5023 5 5.50226 5 5.50222C5 5.50218 5 5.50214 5 5.5021C5 5.50206 5 5.50202 5 5.50198C5 5.50194 5 5.5019 5 5.50186C5 5.50183 5 5.50179 5 5.50175C5 5.50172 5 5.50168 5 5.50165C5 5.50161 5 5.50158 5 5.50155C5 5.50151 5 5.50148 5 5.50145C5 5.50142 5 5.50139 5 5.50136C5 5.50133 5 5.5013 5 5.50127C5 5.50124 5 5.50121 5 5.50118C5 5.50116 5 5.50113 5 5.5011C5 5.50108 5 5.50105 5 5.50103C5 5.501 5 5.50098 5 5.50095C5 5.50093 5 5.50091 5 5.50088C5 5.50086 5 5.50084 5 5.50082C5 5.5008 5 5.50078 5 5.50075C5 5.50073 5 5.50071 5 5.5007C5 5.50068 5 5.50066 5 5.50064C5 5.50062 5 5.5006 5 5.50059C5 5.50057 5 5.50055 5 5.50054C5 5.50052 5 5.5005 5 5.50049C5 5.50047 5 5.50046 5 5.50044C5 5.50043 5 5.50042 5 5.5004C5 5.50039 5 5.50038 5 5.50036C5 5.50035 5 5.50034 5 5.50033C5 5.50032 5 5.5003 5 5.50029C5 5.50028 5 5.50027 5 5.50026C5 5.50025 5 5.50024 5 5.50023C5 5.50022 5 5.50021 5 5.50021C5 5.5002 5 5.50019 5 5.50018C5 5.50017 5 5.50017 5 5.50016C5 5.50015 5 5.50014 5 5.50014C5 5.50013 5 5.50013 5 5.50012C5 5.50011 5 5.50011 5 5.5001C5 5.5001 5 5.50009 5 5.50009C5 5.50008 5 5.50008 5 5.50007C5 5.50007 5 5.50006 5 5.50006C5 5.50006 5 5.50005 5 5.50005C5 5.50005 5 5.50004 5 5.50004C5 5.50004 5 5.50004 5 5.50003C5 5.50003 5 5.50003 5 5.50003C5 5.50002 5 5.50002 5 5.50002C5 5.50002 5 5.50002 5 5.50001C5 5.50001 5 5.50001 5 5.50001C5 5.50001 5 5.50001 5 5.50001C5 5.50001 5 5.50001 5 5.50001C5 5.5 5 5.5 5 5.5C5 5.5 5 5.5 5 5.5C5 5.5 5 5.5 5 5.5C5 5.5 5 5.5 5 5.5C5 5.5 5 5.5 5 5.5C5 5.5 5 5.5 5 5.5C5 5.5 5 5.5 4.5 5.5Z" fill="#C5C5C5"/>
<path d="M9.5 5V2" stroke="#C5C5C5"/>
<path d="M5.5 5V2" stroke="#C5C5C5"/>
<path d="M7.5 10.5V14" stroke="#C5C5C5"/>
</svg>
